/* XPM */
static char *s51XQTPfFXx_png[] = {
/* columns rows colors chars-per-pixel */
"64 64 89 1 ",
"  c #001F50",
". c #002051",
"X c #00285C",
"o c #0F2E5B",
"O c #002D64",
"+ c #00336B",
"@ c #003B77",
"# c #0F466F",
"$ c #00457D",
"% c #2D4A71",
"& c #004383",
"* c #00498B",
"= c #004B8E",
"- c #004C8F",
"; c #004F92",
": c #005692",
"> c #1E6C8E",
", c #005DA0",
"< c #0063A6",
"1 c #006AAF",
"2 c #006EB2",
"3 c #0070B1",
"4 c #0076B9",
"5 c #0078BD",
"6 c #597491",
"7 c #007FC4",
"8 c #0087BC",
"9 c #598FB8",
"0 c #7593A8",
"q c #0082C7",
"w c #008DC1",
"e c #0083C8",
"r c #008CCC",
"t c #0092CF",
"y c #009ED3",
"u c #009FD5",
"i c #2797CE",
"p c #00A2D7",
"a c #00A5D8",
"s c #00ABDB",
"d c #1EAAD8",
"f c #00B4DF",
"g c #33B0CE",
"h c #00B5E0",
"j c #00B8E1",
"k c #00BCE3",
"l c #1FBEE3",
"z c #4EAAD6",
"x c #4FA9D9",
"c c #59B1DC",
"v c #00C3E6",
"b c #00D3E8",
"n c #2ED1E9",
"m c #33D7ED",
"M c #37D8EC",
"N c #00F3FD",
"B c #42CEE1",
"V c #42D8EC",
"C c #5FD0EB",
"Z c #75C0E2",
"A c #45E2F0",
"S c #47E5F2",
"D c #4CE5F2",
"F c #51EAF3",
"G c #52EBF4",
"H c #52ECF5",
"J c #5CEDF5",
"K c #67EEF6",
"L c #859EB2",
"P c #82B0C8",
"I c #A3BAC7",
"U c #8FCBE0",
"Y c #94D1EA",
"T c #9FD0EA",
"R c #8FDEF1",
"E c #A3D8EC",
"W c #88F1F8",
"Q c #92F3F8",
"! c #BEF7FB",
"~ c #CEEAE9",
"^ c #DFE3E9",
"/ c #D0ECEB",
"( c #C8F9FB",
") c #DEFBFD",
"_ c #EAFDFB",
"` c #EBFEFC",
"' c #ECFFFD",
"] c #F4FDFE",
"[ c white",
/* pixels */
"''''//'''/''''''''''//'''/''''''''''//'''/''''''''''//'''/''''''",
"//'''''''''/'''///'''''''''/'''///'''''''''/'''///'''''''''/'''/",
"/'''''''//''/''/---'''''//''/''//'''''''//''/''//'''''''//''/''/",
"'//''/'//''////-hhh-'/'//''////''//''/'//''////''//''/'//''////'",
"'/'//''//'/////-hhh-/''//'/////''/'//''//'/////''/'//''//'/////'",
"//'//''''/////-[[[hh--'''/////''//'//''''/////''//'//''''/////''",
"//'''''/////eeH[[[[ehh-//////''/...''''//////''///'''''//////''/",
"/'''/''/'///ee[[[[[HeeN.'////''.ee.'/''/'////''//'''/''--------/",
"''''/'//'//'ee[[[[[HeeN.'//''''.ee.'/'//'//'''''''''/'/--------'",
"'''''///'''e[[[HHH[[eeeN..''''.hee.''///''''''''''-----HH[[[[h-'",
"''''///''''e[[HHHH[[HHeNNN./..hh--.'///''''//'eeeeH[[[[[[[[HHh-'",
"'/''/''''Ee[HHHHHH[[[[hhNNe.hhhH--.'/'''''/eeeH[[[[[[[[[[[[hhh-'",
"/''''''''Ue[HHHHHH[[[[hhNNe.hhhH--.''''''//eeeH[[[[[[[[[[[[hhh-/",
"'''''''''Ee[HHHHHH[[[[hhhhh.hhHHee.'''''YeeHJ[[[[[[[[[[[[[Hhh.//",
"''''''''ex[HHHHHHH[[[[Hhee--..Heee.'''eedH[[[[[[[[[[[[[[[[hhh.''",
"''''''/'ex[HHHHH[[[[[[[h----..eeee.eeeH[[[HHHH[[[[[[[HH[[Nh..'''",
"''''//''ex[HHHHH[[[[[[[h----..eeee.eeeH[[[HHHH[[[[[[[HH[[Nh..'''",
"//'''''eHW[HHHH[[[H[[[[h---e--.eee-H([[[!HHHHHH[[[[HHH[NNNe..''/",
"/''''''e[[[[[[[[HHH[[[[heeeeee....[[[[[[[[[[]HH[[[HHH[NNNe-'/''/",
"'//''/'e[[[[[[KKHHH[[[[Seeeeee4.^^[KKKKKKKK[[``[[[H``lktte-////'",
"'/'//''e[[[[[[HHHHH[[[[Heeeqqqq.[[[GGHHHHHH[[[[[[[H[[hheee-////'",
"//'//ceH[(HHHHHHHHH[[[[[ee-===q.[[FFFHHHHHHHJ[[[[[[eeeeee-////''",
"//'''ce[[(HHHHHHHH[[[[[[hh-====q..FFFHHHHHHHJ[[[[[e---eee-///''/",
"/'''/ce[[(HHHHHH!![[[[[[hhw====q..FFFHHHHHHHJ[[[[C<---e$$P///''/",
"''''/ce[[(HHHHHH[[[[[[[[hhh====q..FFFHHHHHHHJ[[[[h----e..//'''''",
"'''''ze[[[[HHHH[[[[[[[[[eehfffqq..FFFHHHHHHHJ[[eeh---e-..'''''''",
"''''/ze[[[[[[[[[[[[[[[H[eee===qq..fFFHHHHHH[[[e--hheee.''''//'''",
"'/''/ce[[[[[[[[[[[[[[[H[eee<<<q:++ynAHHHHHHRRRe--8uee1.LLL0LLL''",
"/''''ce[[[[[[[[[[[[[[[H[eeeqqqq.==qfMHHHHHHhhhe---eee-........'/",
"'''''ce[[[[[[[[[[[[[[[H[eeeqffq.==qffhhhhhhhhhNeeee--..HHHhhh.//",
"'''''ceH[[[[[[[[[[[[HHH[eeehhh-.eeehhhhhhhhhjNNee....[[HHhhee.''",
"'''''ZiB[[[[[[[[[[[[HHH[eerhss&XeeehhhhhhhhvvNb55#%%%[)VVhh33%''",
"''''//'-[[[[[[[[[[[[HHH[eehhee.-eeehhhhhhhhNNN---H[[[[Heehh..'''",
"//'''''-[[[[[[[[HH[HHHH[eeee--.eeeehhhhhhhe---H[[[[[[[eeehe..''/",
"/''''''-[[[[[[[H[[HHHHH[eeee..-eeeeeahhe2--HJ[[[[[[[[Hehhh.'/''/",
"'//''/'-[[[[[[[H[[HHHHH[eeee..-eeeeeahhe2--HJ[[[[[[[[Hehhh.////'",
"'/'//''-[[[[[[H[HHHHHH[[hhee..eeeeee,-..>H[[[[[[[[[[[hhhhe.////'",
"//'//''-HW[[[[[HHHHHHH[ehhhe..eeeee...H[[[[HHH[[[[[HHhNhh.////''",
"//'''9-----[[[HHHHHHHH[ehhh.--eeee-H([[[[[[[]HH[[[[hhNNee.///''/",
"/'''/9-----[[[HHHHHHHH[ehhh.--eeee-H([[[[[[[]HH[[[[hhNNee.///''/",
"''''eT[[[(HHHHHHHHHH[[[ehhe.--ee--[[[[HHHHHHJ[[[[[HNNNe..//'''''",
"'''e[[[[[[[HHHHHHHH[[[ehNN..---.[[[HHHHHHHHHJ[[[[[hhhee..'''''''",
"'''eH![[[[[[HHHhHHHHHHeNNN..--.[[[HHHHHHHHH[[[[[[Hheee-..''//'''",
"'/'eH![[[[[[HHHhHHHHHHeNNN..--.[[[HHHHHHHHH[[[[[[Hheee-..'/'''''",
"/''e[QH[[[[[[[h-HHHHeeNNee....[[HHHHHHHHQ[[[[[[[[heeee.''//''''/",
"'''e[[[HHW[[HH--[[[hhhhh...-[[[[[[[[[[[[[[[[[[[eeeeeee.'''''''//",
"'''eH![[HHH[hh--[[[[hhhe..e[[[[HHHHH([[[[[[[[[hee--ee-.'''''''''",
"'''eH![[HHH[hh--[[[[hhhe..e[[[[HHHHH([[[[[[[[[hee--ee-.'''''''''",
"'''eHHHHHHH[hh-eHH[[----eee[[[HHHHH[[[[[[[[HDeh----ee.'''/''''''",
"//'eHHHHHHH[hheeHHHH---hhhhh[[[[[[[[[[[[!Hheee-----ee.'''''/'''/",
"/''eHHHHHHHHhheeHHHH--ehhhhhhhhhhhheeeeeeeee7------ee.''//''/''/",
"'//eHHHHHHHHhheeHHHH--ehhhhhhhhhhhheeeeeeeee7------ee.'//''////'",
"'/'ehmHHHHHHhheehhHHeeehHHHHhhhhhhhhteeeeeee7------ee.'//'/////'",
"//'/-gHHHHHHhh-ehhheeeeHHHHHeehhhhhhhhehpe--;e----e..''''/////''",
"//''-whHHHHHhh-ehhhheeeHHHHe--ehhhhhhhehhh--;eeeee.''''//////''/",
"/'''-whHHHHHhh-ehhhheeeHHHHe--ehhhhhhhehhh--;eeeee.'/''/'////''/",
"''''/9-hHHHh--eeeehhhhehhhh---eeeeeeeeeeeeeeee-...''/'//'//'''''",
"'''''//.....eeeeeeehhhehhhh-eeeeeeeeeeeeeee-*..''''''///''''''''",
"''''///''''...eeeeeeee-hhheeeeeeeeeeeee-@...o'''''''///''''//'''",
"'/''/'''''/...eeeeeeee-hhheeeeeeeeeeeee-@...o''''/''/'''''/'''''",
"/''''''''//'...........-qqqqqqeeeee-O...6//''''//''''''''//''''/",
"''''''''''''''//''''`__...... ......I'''''''''//''''''''''''''//",
"''''''''''''''''''''`_________''''''''''''''''''''''''''''''''''",
"''''''/'''''''''''''`_~_______''''''''/'''''''''''''''/'''''''''"
};
