/* XPM */
static char *_60aa5aa03044a00cead716ed3d651cfCQbbjbzPrqLVMyyr[] = {
/* columns rows colors chars-per-pixel */
"64 64 151 2 ",
"   c #13100F",
".  c #1C120F",
"X  c #131313",
"o  c #1E1412",
"O  c #171718",
"+  c #1D1D1D",
"@  c #25130E",
"#  c #2D140D",
"$  c #291713",
"%  c #271F13",
"&  c #2C1A15",
"*  c #2D1D18",
"=  c #361B15",
"-  c #301F1A",
";  c #2D2716",
":  c #382E17",
">  c #31201B",
",  c #312A1E",
"<  c #262627",
"1  c #272A2A",
"2  c #2A2A2A",
"3  c #332D2B",
"4  c #35332D",
"5  c #38362E",
"6  c #333333",
"7  c #333838",
"8  c #383A3A",
"9  c #6B1804",
"0  c #6F1E0B",
"q  c #721903",
"w  c #7C1900",
"e  c #7F230C",
"r  c #6E3A01",
"t  c #7E3F02",
"y  c #7E2D19",
"u  c #7F321E",
"i  c #744205",
"p  c #764711",
"a  c #7E521D",
"s  c gray30",
"d  c #574E4B",
"f  c #5C514E",
"g  c #645855",
"h  c #636363",
"j  c #6A6C6C",
"k  c #6F6F76",
"l  c #6E7071",
"z  c #737575",
"x  c #79797F",
"c  c #841B01",
"v  c #8A2007",
"b  c #85240C",
"n  c #9F2604",
"m  c #91230A",
"M  c #862F1A",
"N  c #892F19",
"B  c #85321E",
"V  c #8B331D",
"C  c #A62603",
"Z  c #AB2602",
"A  c #AC2905",
"S  c #B32700",
"D  c #B82700",
"F  c #B72903",
"G  c #BD2900",
"H  c #863522",
"J  c #8F3621",
"K  c #8B3926",
"L  c #C22E06",
"P  c #C7310A",
"I  c #C13E1B",
"U  c #8C5C21",
"Y  c #BC4322",
"T  c #AC7626",
"R  c #B87522",
"E  c #B57B25",
"W  c #C34626",
"Q  c #D34323",
"!  c #D94624",
"~  c #DC4826",
"^  c #DE4928",
"/  c #D64E30",
"(  c #E14C2B",
")  c #EA512E",
"_  c #E65131",
"`  c #EE5332",
"'  c #F25735",
"]  c #F35837",
"[  c #887779",
"{  c #E85E42",
"}  c #C28225",
"|  c #CC8B29",
" . c #D2922B",
".. c #DFB139",
"X. c #E6B335",
"o. c #E1B439",
"O. c #EFBC39",
"+. c #FCC93F",
"@. c #FDCB40",
"#. c #7B7B81",
"$. c #88888F",
"%. c #92898E",
"&. c #878991",
"*. c #8A8A92",
"=. c #8C9097",
"-. c #919197",
";. c #91939A",
":. c #96989F",
">. c #9699A0",
",. c #B3B3B3",
"<. c #B7B7B8",
"1. c #BCBCBC",
"2. c #C9BDBA",
"3. c #BFBFC0",
"4. c #AFC5C3",
"5. c #B8CFCE",
"6. c #B8D0CF",
"7. c #B9D2D1",
"8. c #C5C5C5",
"9. c #C7C7C8",
"0. c #CBCBCB",
"q. c #D0CAC9",
"w. c #C5D2CE",
"e. c #CFCFD0",
"r. c #C5D5D3",
"t. c #CAD7D2",
"y. c #C4DEDD",
"u. c #CCDCDA",
"i. c #D5D5D5",
"p. c #D9D6D0",
"a. c #DADADA",
"s. c #C5E0DF",
"d. c #CCE1DF",
"f. c #D0E1DF",
"g. c #DDE2DE",
"h. c #CBE6E5",
"j. c #CFEBEA",
"k. c #D1E2E0",
"l. c #D0ECEB",
"z. c #D9EAE8",
"x. c #DFF1EF",
"c. c #E2E2E2",
"v. c #E7E7E8",
"b. c #EAEAEB",
"n. c #E4F1EE",
"m. c #E3F4F1",
"M. c #E7F9F7",
"N. c #ECFFFD",
"B. c #F4F3F3",
"V. c #FBFBFB",
"C. c #FCFCFC",
/* pixels */
"N.N.N.N.l.l.N.N.N.l.N.N.N.N.N.N.N.N.N.N.l.l.N.N.N.l.N.N.N.N.N.N.N.N.N.N.l.l.N.N.N.l.N.N.N.N.N.N.N.N.N.N.l.l.N.N.N.l.N.N.N.N.N.N.",
"l.l.N.N.N.N.N.N.N.N.N.l.N.N.N.l.l.l.N.N.N.N.N.N.N.N.N.l.N.N.N.l.l.l.N.N.N.N.N.N.N.N.N.l.N.N.N.l.l.l.N.N.N.N.N.N.N.N.N.l.N.N.N.l.",
"l.N.N.N.N.N.N.N.l.l.N.N.l.N.N.l.l.N.N.N.N.N.N.N.l.l.N.N.l.N.N.l.l.N.N.N.N.N.N.N.l.l.N.N.l.N.N.l.l.N.N.N.N.N.N.N.l.l.N.N.l.N.N.l.",
"N.l.l.N.N.l.N.l.l.N.N.l.l.l.l.N.N.l.l.N.N.l.N.l.l.N.N.l.l.l.l.N.N.l.l.N.N.l.N.l.l.N.N.l.l.l.l.N.N.l.l.N.N.l.N.l.l.N.N.l.l.l.l.N.",
"N.l.N.l.l.N.N.l.l.N.l.l.l.l.l.N.N.l.N.l.l.N.N.l.l.N.l.l.l.l.l.N.N.l.N.l.l.N.N.l.l.N.l.l.l.l.l.N.N.l.N.l.l.N.N.l.l.N.l.l.l.l.l.N.",
"l.l.N.l.l.N.N.N.N.l.l.l.l.l.N.N.l.l.N.l.l.N.N.z j h.l.l.l.l.N.>.h.l.N.l.l.N.N.N.N.l.l.l.l.l.N.N.l.l.N.l.l.N.N.N.N.l.l.l.l.l.N.N.",
"l.l.N.N.N.N.N.l.l.l.l.l.l.N.N.l.l.l.N.N.N.N.N.h c.z j h.l.N.z v.;.h.N.N.N.N.N.l.l.l.l.l.;.l m.l.l.l.N.N.N.N.N.l.l.l.l.l.l.N.N.l.",
"l.N.N.N.l.N.N.l.N.l.l.l.l.N.N.l.l.N.N.N.l.N.N.y.8 a.b.z j m.h B.*.M.N.N.l.N.N.l.N.l.l.;.b.h m.l.l.N.N.N.l.N.N.l.N.l.l.l.l.N.N.l.",
"N.N.N.N.l.N.l.l.N.l.l.N.N.N.N.N.N.N.N.N.l.N.l.l.+ 0.a.b.b.z + 0.b.:.M.N.l.N.l.l.N.l.;.9.V.< x.N.N.N.N.N.l.N.l.l.N.l.l.N.N.N.N.N.",
"N.N.N.N.N.l.l.l.N.N.N.N.N.N.N.N.N.N.N.N.N.l.l.l.k.6 0.a.C.b.+ 0.C.*.M.N.N.l.;.=.M.N.*.B.C.+ x.N.N.N.N.N.N.l.l.l.N.N.N.N.N.N.N.N.",
"N.N.N.N.l.l.l.N.N.N.N.l.l.N.N.N.N.N.N.N.l.l.l.N.N.k.6 0.a.a.1.i.a.h m.N.l.l.&.b.:.-.b.C.a.+ x.N.N.N.N.N.l.l.l.N.N.N.N.l.l.N.N.N.",
"N.l.N.N.l.N.N.N.N.N.l.N.N.N.N.N.N.l.N.N.l.N.N.N.N.N.7.6 0.i.i.i.i.8.z m.l.N.*.i.b.0.V.C.z u.N.N.N.l.N.N.l.N.N.N.N.N.l.N.N.N.N.N.",
"l.N.N.N.N.N.N.N.N.l.l.N.N.N.N.l.l.N.N.N.N.N.N.N.N.l.l.k.6 0.i.i.i.i.h m.N.N.*.e.a.i.C.a.h m.z j j m.N.N.N.N.N.N.N.l.l.N.N.N.N.l.",
"N.N.N.N.N.N.N.N.N.N.N.N.N.N.l.l.N.N.N.N.N.N.N.N.N.N.N.N.+ h 0.i.i.i.8.7 m.N.*.e.i.i.a.i.h j c.b.< x.N.N.N.N.N.N.N.N.N.N.N.N.l.l.",
"N.N.N.N.N.N.N.N.N.N.N.N.N.N.N.N.N.N.N.N.N.N.N.N.N.N.8 2 ,.8.i.i.i.W I q B 3 8.i.i.i.i.i.b.b.C.z u.N.N.N.N.N.N.N.N.N.N.N.N.N.N.N.",
"N.N.N.N.N.N.l.N.N.N.N.N.N.N.N.N.N.N.N.N.N.N.l.N.N.N.+ ,.i.i.i.W I _ ` Q Q A N M q.i.i.i.a.a.8 u.N.N.N.N.N.N.l.N.N.N.N.N.N.N.N.N.",
"N.N.N.N.l.l.N.N.N.l.N.N.N.N.N.N.N.N.N.N.l.l.N.N.N.l.k.6 0.-.Y ! ` ] ] ' ^ ! F S N q.i.i.i.6 r.N.N.N.N.N.l.l.N.N.N.l.N.N.N.N.N.N.",
"l.l.N.N.N.N.N.N.N.N.N.l.N.N.N.l.l.l.N.N.N.N.N.N.z j 6 ,.i.B Q ^ ( ] ] = $ $ w c w M q.i.i.+ x.l.l.l.N.N.N.N.N.N.N.N.N.l.N.N.N.l.",
"l.N.N.N.N.N.N.N.l.l.N.N.l.N.N.l.l.N.N.N.N.N.N.8 1.8.1.-.H S L L ~ ( ( f <.1.2.2.g f 0.i.6 r.N.l.l.N.N.N.N.N.N.N.l.l.N.N.l.N.N.l.",
"N.l.l.N.N.l.N.l.l.N.N.l.l.l.l.N.N.l.l.N.N.l.N.7.6 < 0.0.* S G G L L = + < 0.i.i.8.8.i.-.O y.l.N.N.l.l.N.N.l.N.l.l.N.N.l.l.l.l.N.",
"N.l.N.l.l.N.N.l.l.N.l.l.l.l.l.N.N.l.N.l.j.N.N.j.7.+ < 0.+ S G G G G d <.1.j j 0.i.-.2 + 4.j.l.N.N.l.N.l.l.N.N.l.l.N.l.l.l.l.l.N.",
"l.l.N.l.l.N.N.N.N.l.l.l.l.l.N.N.l.l.N.l.j.N.N.N.z <.1.i.1.* S G G # + < 0.8.8.i.-.< i.+ y.l.N.N.l.l.N.l.l.N.N.N.N.l.l.l.l.l.N.N.",
"l.l.N.N.N.N.N.l.l.l.l.l.l.N.N.l.l.l.N.N.N.N.N.7 1.i.i.i.i.1.* @ @ ,.1.1.j j 0.i.< X B.+ a m.N.l.l.l.N.N.N.N.N.l.l.l.l.l.l.N.N.l.",
"l.N.N.N.l.N.N.l.N.l.l.l.l.N.N.l.l.N.N.N.j.N.N.+ < h 0.i.i.i.1.1.1.i.i.i.8.8.i.i.#.O B.p X.U U d.l.N.N.N.l.N.N.l.N.l.l.l.l.N.N.l.",
"N.N.N.N.l.N.l.l.N.l.l.N.N.N.N.N.N.N.N.N.j.N.j.6.d.< < h 0.i.i.i.i.i.i.i.i.i.i.i.0.#.6 o.@.O.O.5 m.N.N.N.l.N.l.l.N.l.l.N.N.N.N.N.",
"N.N.N.N.N.l.l.l.N.N.N.N.N.N.N.N.N.N.N.N.N.j.j.j.8 s <.8.i.i.i.i.i.i.i.i.i.i.i.i.i.0.+ ; |  .: r.N.N.N.N.N.l.l.l.N.N.N.N.N.N.N.N.",
"N.N.N.N.l.l.l.N.N.N.N.l.l.N.N.N.N.N.N.N.j.j.j.N.+ 1.i.i.i.i.i.i.i.i.i.i.i.i.i.i.i.i.#.<., % r.N.N.N.N.N.l.l.l.N.N.N.N.l.l.N.N.N.",
"N.l.N.N.l.N.N.N.N.N.l.N.N.N.N.N.N.l.N.N.j.N.N.N.f.6 h 0.i.i.i.i.i.i.i.i.i.i.i.i.i.i.b.-.O r.N.N.N.l.N.N.l.N.N.N.N.N.l.N.N.N.N.N.",
"l.N.N.N.N.N.N.N.N.l.l.N.N.N.N.l.l.N.N.N.N.N.N.N.8 ,.8.i.i.i.i.i.i.i.i.i.i.i.i.i.i.i.C.B.+ x.N.l.l.N.N.N.N.N.N.N.N.l.l.N.N.N.N.l.",
"N.N.N.N.N.N.N.N.N.N.N.N.N.N.l.l.N.N.N.N.N.N.N.N.f.6 < 0.i.i.K M M M M M q.i.i.i.i.i.a.C.#.6 s.l.N.N.N.N.N.N.N.N.N.N.N.N.N.N.l.l.",
"N.N.N.N.N.N.N.N.N.N.N.N.N.N.N.N.N.N.N.N.N.N.N.N.N.k.+ 0.6 < Z ( _ _ _ _ I V M q.i.K q.a.b.+ x.N.N.N.N.N.N.N.N.N.N.N.N.N.N.N.N.N.",
"N.N.N.N.N.N.l.N.N.N.N.N.N.N.N.N.N.N.N.N.N.N.l.N.N.N.+ y C / ` ] ] ] ] ] ` _ _ %.i.b M M B.+ x.N.N.N.N.N.N.N.l.N.N.N.N.N.N.N.N.N.",
"N.N.N.N.l.l.N.N.N.l.N.N.N.N.N.N.N.N.N.N.l.l.N.N.8 u C S ) ] ] ] ] ] ] ] ] ] ] { 3 . Z S V 9 n.N.N.N.N.N.l.l.N.N.N.l.N.N.N.N.N.N.",
"l.l.N.N.N.N.N.N.N.N.N.l.N.N.N.l.l.l.N.N.N.N.8 2 n S c ) ] ] ] ] ] ] ] ] ] ] ] P Z Z G G S S V B d.l.N.N.N.N.N.N.N.N.N.l.N.N.N.l.",
"l.N.N.N.N.N.N.N.l.l.N.N.l.N.N.l.l.N.N.N.>.-.1.x [ c w ` ] ] ] ] ] ] ] ] ] P L G G G G G G ) _ F V m.N.N.N.N.N.N.l.l.N.N.l.N.N.l.",
"N.l.l.N.N.l.N.l.l.N.N.l.l.l.l.N.N.l.;.-.9.0.6 + 3.e S L ' ] ] ] ] ] P P L G G G G G G G G ^ ] ` _ V B m.N.l.N.l.l.N.N.l.l.l.l.N.",
"N.l.N.l.l.N.N.l.l.N.l.l.l.l.l.N.N.;.b.0.i.6 k <.6 Z G G L L L L P P G G G G G G c G G G G L ' ] ] _ _ V B m.N.l.l.N.l.l.l.l.l.N.",
"l.l.N.l.l.N.N.N.N.l.l.l.l.l.N.N.;.b.C.i.-.1.0.i.+ S G G G G G G G G G G G G G G S c c G G G L ' ] ] ] _ _ J m.N.N.l.l.l.l.l.N.N.",
"l.l.N.N.N.N.N.l.l.l.l.l.l.N.>.=.b.C.a.i.0.i.i.6 n G G G G G G G G G G G G G G G G S S c # @ w L ^ ] ] m v p.N.l.l.l.l.l.l.N.N.l.",
"l.N.N.N.l.N.N.l.N.l.l.l.l.>.9.b.C.a.i.i.i.i.i.+ S G G G G G G G G G G G G G G G G G G S . r.g.- $ & & i.w.N.N.l.N.l.l.l.l.N.N.l.",
"N.N.N.N.l.N.l.l.N.l.l.N.>.b.V.C.a.i.i.i.i.i.-.0 D G G G G G G G G G G G G G G G G G G ) A 3 m.k.k.k.k.N.l.N.l.l.N.l.l.N.N.N.N.N.",
"N.N.N.N.N.l.l.l.N.N.N.>.b.C.C.C.i.i.i.i.i.i.< Z G G G G G G G G G G G G G G G G G G G ^ ` o x.N.N.N.N.N.N.l.l.l.N.N.N.N.N.N.N.N.",
"N.N.N.N.l.l.l.N.N.N.>.b.C.C.C.a.i.i.i.i.i.-.O S G G G G G G G G G G G G G G G G G G G L ' A 3 m.N.N.N.N.l.l.l.N.N.N.N.l.l.N.N.N.",
"N.l.N.N.l.N.N.N.N.>.b.C.C.C.C.;.i.i.i.i.i.$.O S G G G G G G G G G G G G G G G G G G G G ' ` o x.N.l.N.N.l.N.N.N.N.N.l.N.N.N.N.N.",
"l.N.N.N.N.N.N.N.N.*.B.C.C.C.>.0.i.i.i.i.i.0.#.& S G G G G G G G G G G G G G G G G G G G ^ ] o y.l.N.N.N.N.N.N.N.N.l.l.N.N.N.N.l.",
"N.N.N.N.N.N.N.N.>.b.C.C.C.C.*.i.i.i.i.i.i.i.0.#.& S G G G G G G G G G G G G G G G G G G L ' W 3 m.N.N.N.N.N.N.N.N.N.N.N.N.N.l.l.",
"N.N.N.N.N.N.N.N.*.V.C.C.C.C.0.-.i.i.i.i.i.i.i.0.1.* @ S G G G G G G G G G G G G G G G G G ' ] o x.N.N.N.N.N.N.N.N.N.N.N.N.N.N.N.",
"N.N.N.N.N.N.l.>.b.C.C.C.C.C.a.0.-.*.i.i.i.-.2 0.i.1.1.* @ S G G G G G G G G G G G G G G G ' P . x.N.N.N.N.N.l.N.N.N.N.N.N.N.N.N.",
"N.N.N.N.l.l.N.*.B.C.C.C.C.C.V.a.0.*.2 < < #.1.i.i.i.i.1.1.b c c G G G G G G G G G G G G G ^ G . x.N.N.N.l.l.N.N.N.l.N.N.N.N.N.N.",
"l.l.N.N.N.N.N.j i.C.C.C.C.C.C.a.i.0.1.1.1.0.i.i.i.i.i.i.i.2.2.2.b G G G G G G G G G G G G L # 4.j.l.N.N.N.N.N.N.N.N.N.l.N.N.N.l.",
"l.N.N.N.N.N.N.< 0.a.a.C.C.C.a.i.i.i.i.i.i.i.i.i.i.i.i.i.i.i.6 < Z G G G G G G G G G G G G G . y.l.N.N.N.N.N.N.N.l.l.N.N.l.N.N.l.",
"N.l.l.N.N.l.N.+ 0.i.i.a.a.a.i.i.i.i.i.i.i.i.i.i.i.i.i.i.6 < 9   @ @ @ S G G G G G G G G c # 4.N.N.l.l.N.N.l.N.l.l.N.N.l.l.l.l.N.",
"N.l.N.l.l.N.N.7.j 0.i.i.i.i.i.i.i.i.i.i.i.i.i.i.i.i.i.6 9   . r.k.7.k.b c G G G G G c c @   1 m.N.l.N.l.l.N.N.l.l.N.l.l.l.l.l.N.",
"l.l.N.l.l.N.N.N.< 0.i.i.i.i.i.i.i.i.i.i.i.i.i.i.i.i.6 T t r t.N.l.l.N.r.w.> @ @ @ @ . R ..o.i 2 1 s.N.l.l.N.N.N.N.l.l.l.l.l.N.N.",
"l.l.N.N.N.N.N.l.7.6 0.i.i.i.i.i.i.i.i.i.i.i.i.i.-.2 T | } } 4 s.l.l.N.N.8 T E E E E E |  .+.O.o.i 2 m.N.N.N.N.l.l.l.l.l.l.N.N.l.",
"l.N.N.N.l.N.N.l.N.7.6 h 0.i.i.i.i.i.i.i.i.i.z 2 + X % % % % r.j.l.N.N.N.+ % } | | | | | |  .: ; . r.N.N.l.N.N.l.N.l.l.l.l.N.N.l.",
"N.N.N.N.l.N.l.l.N.l.7.z.6 < < < < < < < < < 5.7.k.7.7.k.k.k.N.N.N.N.N.N.7.k., % % % % % % % r.k.k.N.N.N.l.N.l.l.N.l.l.N.N.N.N.N.",
"N.N.N.N.N.l.l.l.N.N.N.N.k.k.k.k.k.k.k.k.k.7.j.l.N.N.N.N.N.N.N.N.N.N.N.N.N.l.7.7.k.k.k.k.k.k.N.N.N.N.N.N.N.l.l.l.N.N.N.N.N.N.N.N.",
"N.N.N.N.l.l.l.N.N.N.N.l.l.N.N.N.N.N.N.N.j.j.l.N.N.N.N.l.l.N.N.N.N.N.N.N.l.l.l.N.N.N.N.l.l.N.N.N.N.N.N.N.l.l.l.N.N.N.N.l.l.N.N.N.",
"N.l.N.N.l.N.N.N.N.N.l.N.N.N.N.N.N.l.N.N.j.N.N.N.N.N.l.N.N.N.N.N.N.l.N.N.l.N.N.N.N.N.l.N.N.N.N.N.N.l.N.N.l.N.N.N.N.N.l.N.N.N.N.N.",
"l.N.N.N.N.N.N.N.N.l.l.N.N.N.N.l.l.N.N.N.N.N.N.N.N.j.j.N.N.N.N.j.l.N.N.N.N.N.N.N.N.l.l.N.N.N.N.l.l.N.N.N.N.N.N.N.N.l.l.N.N.N.N.l.",
"N.N.N.N.N.N.N.N.N.N.N.N.N.N.l.l.N.N.N.N.N.N.N.N.N.N.N.N.N.N.j.j.N.N.N.N.N.N.N.N.N.N.N.N.N.N.l.l.N.N.N.N.N.N.N.N.N.N.N.N.N.N.l.l.",
"N.N.N.N.N.N.N.N.N.N.N.N.N.N.N.N.N.N.N.N.N.N.N.N.N.N.N.N.N.N.N.N.N.N.N.N.N.N.N.N.N.N.N.N.N.N.N.N.N.N.N.N.N.N.N.N.N.N.N.N.N.N.N.N.",
"N.N.N.N.N.N.l.N.N.N.N.N.N.N.N.N.N.N.N.N.N.N.j.N.N.N.N.N.N.N.N.N.N.N.N.N.N.N.l.N.N.N.N.N.N.N.N.N.N.N.N.N.N.N.l.N.N.N.N.N.N.N.N.N."
};
