/* XPM */
static char *_e94f0d1db7d484589ece5216e8becf0sKjxsofzsi1STERp[] = {
/* columns rows colors chars-per-pixel */
"64 64 156 2 ",
"   c black",
".  c gray9",
"X  c #1D1616",
"o  c #1E1A17",
"O  c #1B1B1B",
"+  c #221516",
"@  c #291515",
"#  c #241719",
"$  c #2A1718",
"%  c #241D1A",
"&  c #281B1C",
"*  c #30171A",
"=  c #25221B",
"-  c #2B241B",
";  c #30281D",
":  c #2A1F20",
">  c #242424",
",  c #2B2323",
"<  c #2E2A25",
"1  c #262828",
"2  c #2B2B2B",
"3  c #312526",
"4  c #302E27",
"5  c #322F28",
"6  c #323232",
"7  c #75120A",
"8  c #7D1109",
"9  c #763D18",
"0  c #7F4621",
"q  c gray33",
"w  c #5D5253",
"e  c #5D5C5C",
"r  c #625657",
"t  c #685053",
"y  c #6B5F61",
"u  c #5F6060",
"i  c #636363",
"p  c #6C6061",
"a  c #6C6D6D",
"s  c #75757B",
"d  c #7B777B",
"f  c #78787F",
"g  c #850F08",
"h  c #880E08",
"j  c #81110A",
"k  c #8C130C",
"l  c #851E15",
"z  c #8A1E16",
"x  c #8D1E18",
"c  c #A3030D",
"v  c #AC010C",
"b  c #B6000C",
"n  c #B9010E",
"m  c #AB0611",
"M  c #B70C17",
"N  c #BA101C",
"B  c #BB1822",
"V  c #BC1F29",
"C  c #8D2A22",
"Z  c #C7171F",
"A  c #C51722",
"S  c #CD1621",
"D  c #C91C26",
"F  c #D01722",
"G  c #D11823",
"H  c #D31E34",
"J  c #DF1D35",
"K  c #E51C33",
"L  c #EC1E37",
"P  c #D72137",
"I  c #E32139",
"U  c #FF343C",
"Y  c #814016",
"T  c #844519",
"R  c #89491B",
"E  c #90501D",
"W  c #864621",
"Q  c #834A24",
"!  c #8C4F25",
"~  c #8E5327",
"^  c #8B512D",
"/  c #BE7837",
"(  c #C67C3A",
")  c #CC7E38",
"_  c #D07F38",
"`  c #DF2B41",
"'  c #EC394F",
"]  c #CD813A",
"[  c #D4863C",
"{  c #D6893D",
"}  c #D88D3F",
"|  c #FF9131",
" . c #FFBB3D",
".. c #CD8948",
"X. c #D68C47",
"o. c #FF874E",
"O. c #EDB74F",
"+. c #EFB951",
"@. c #F3BD53",
"#. c #F8BF53",
"$. c #FFA769",
"%. c #F7C054",
"&. c #FCC456",
"*. c #FEC857",
"=. c #FFC958",
"-. c #7B7B81",
";. c #808087",
":. c #84848B",
">. c #8C8188",
",. c #87888F",
"<. c #88888F",
"1. c #8B8C93",
"2. c #8F9197",
"3. c #919197",
"4. c #98989F",
"5. c #A7A1A7",
"6. c #A2A3A9",
"7. c #A7A8AF",
"8. c #ACADB4",
"9. c #AFB0B6",
"0. c #B4B5BB",
"q. c #C4BCBC",
"w. c #CAC2BD",
"e. c #BAD3D2",
"r. c #C7C5C4",
"t. c #CCC8C6",
"y. c #CACACA",
"u. c #C6D1CF",
"i. c #C0D2D0",
"p. c #C4DFDE",
"a. c #CBDFDD",
"s. c #D4D4D4",
"d. c gray85",
"f. c #C5E0DF",
"g. c #CBE2DE",
"h. c #CAE5E5",
"j. c #CFEBEA",
"k. c #D3E4E2",
"l. c #DAE4E0",
"z. c #D7E8E6",
"x. c #DFE8E1",
"c. c #D0ECEB",
"v. c #DFF1EF",
"b. c #E3E3E3",
"n. c #EBEBEB",
"m. c #F0E2E1",
"M. c #E6F1EF",
"N. c #F6F1EF",
"B. c #E2F3F1",
"V. c #E6F8F7",
"C. c #ECFFFD",
"Z. c #F3F3F3",
"A. c #FCF0F2",
"S. c #F7F7F8",
"D. c #FAFAFA",
"F. c #FEFEFE",
/* pixels */
"C.C.C.C.c.c.C.C.C.c.C.C.C.C.C.C.C.C.C.C.c.c.C.C.C.c.C.C.C.C.C.C.C.C.C.C.c.c.C.C.C.c.C.C.C.C.C.C.C.C.C.C.c.c.C.C.C.c.C.C.C.C.C.C.",
"c.c.C.C.C.C.C.C.C.C.C.c.C.C.C.c.c.c.C.C.C.C.C.C.C.C.C.c.C.C.C.c.c.c.C.C.C.C.C.C.C.C.C.c.C.C.C.c.c.c.C.C.C.C.C.C.C.C.C.c.C.C.C.c.",
"c.C.C.C.C.C.C.C.c.c.C.C.c.C.C.c.c.C.C.C.C.C.C.C.c.c.C.C.c.C.C.c.c.C.C.C.C.C.C.C.c.c.C.C.c.C.C.c.c.C.C.C.C.C.C.C.c.c.C.C.c.C.C.c.",
"C.c.c.C.C.c.C.c.c.C.C.c.c.c.c.C.C.c.c.C.C.c.C.c.c.C.C.c.c.c.c.C.C.c.c.C.C.c.C.c.c.C.C.c.c.c.c.C.C.c.c.C.C.c.C.c.c.C.C.c.c.c.c.C.",
"C.c.C.c.c.C.C.c.c.C.c.c.c.c.c.C.C.c.C.c.c.C.C.c.c.C.c.c.c.c.c.C.C.c.C.c.c.C.C.c.c.C.c.c.c.c.c.C.C.c.C.c.c.C.C.c.c.C.c.c.c.c.c.C.",
"c.c.C.c.c.C.C.C.C.c.c.c.c.c.C.C.c.c.C.c.c.C.C.C.C.c.c.c.c.c.C.C.c.c.C.c.c.C.C.C.C.c.c.c.c.c.C.C.c.c.C.c.c.C.C.C.C.c.c.c.c.c.C.C.",
"c.c.C.C.C.C.C.c.c.c.c.c.c.C.C.c.c.c.C.C.C.C.C.c.c.c.c.c.c.C.C.c.c.c.C.C.C.C.C.c.c.c.c.c.c.C.C.c.c.c.C.C.C.C.C.c.c.c.c.c.c.C.C.c.",
"c.C.C.C.c.C.C.c.C.c.c.c.c.C.C.c.c.C.C.a :.V.C.c.C.c.c.c.c.C.C.c.c.C.C.C.c.C.C.c.C.c.c.c.c.C.C.c.c.C.C.C.c.C.C.c.C.c.c.c.c.C.C.c.",
"C.C.C.C.c.C.c.c.C.c.c.C.C.C.C.C.C.C.C.i n.2.h.c.C.c.c.C.C.C.C.C.C.C.C.2.h.C.c.c.C.c.c.2.2 > B.C.C.C.C.C.c.C.c.c.C.c.c.C.C.C.C.C.",
"C.C.C.C.C.c.c.c.C.C.C.C.C.C.C.C.C.C.C.i Z.S.1.h.C.C.a 1 B.C.C.C.C.C.2.Z.2.h.c.c.2.1.8.Z.Z.> v.C.C.C.C.C.C.c.c.c.C.C.C.C.C.C.C.C.",
"C.C.C.C.c.c.c.C.C.C.C.c.c.C.C.C.C.C.C.i Z.F.8.V.C.a n.> p.C.C.C.C.C.8.D.1.h.1.1.Z.Z.D.F.6 k.C.C.C.C.C.C.c.c.c.C.C.C.C.c.c.C.C.C.",
"C.c.C.C.c.C.C.C.C.C.c.C.C.C.C.C.C.c.C.i Z.F.D.6 u n.F.> v.C.C.C.C.1.Z.F.S.2.Z.Z.F.F.F.6 k.C.C.C.C.c.C.C.c.C.C.C.C.C.c.C.C.C.C.C.",
"c.C.C.C.C.C.C.C.C.c.c.C.C.C.C.c.a i i e Z.F.F.i n.F.a z.C.C.C.c.c.1.Z.F.F.S.F.F.F.F.6 k.C.C.C.c.c.C.C.C.C.C.C.C.C.c.c.C.C.C.C.c.",
"C.C.C.C.C.C.C.C.C.C.C.C.C.C.c.c.i n.Z.i Z.F.F.Z.F.F.1 v.C.C.c.c.C.1.Z.F.F.F.F.F.3.2 . > > B.c.c.C.C.C.C.C.C.C.C.C.C.C.C.C.C.c.c.",
"C.C.C.C.C.C.C.C.C.C.C.C.C.C.C.C.V.a Z.Z.F.F.F.F.F.a z.C.' N N N , n.F.F.F.F.F.F.S.Z.Z.Z.Z.6 B.C.C.C.C.C.C.C.C.C.C.C.C.C.C.C.C.C.",
"C.C.C.C.C.C.c.C.C.C.C.C.C.C.C.C.C.V.a Z.F.F.F.F.F.1 ` N K K K K # Z.F.F.F.F.F.F.F.F.F.a 1 k.C.C.C.C.C.C.C.C.c.C.C.C.C.C.C.C.C.C.",
"C.C.C.C.c.c.C.C.C.c.C.C.C.C.C.C.C.C.V.a Z.F.F.F.F.> J K K L L * b.F.F.F.F.F.F.F.F.a 1 z.v.C.C.C.C.C.C.C.c.c.C.C.C.c.C.C.C.C.C.C.",
"c.c.C.C.C.C.C.C.C.C.C.c.C.C.C.c.c.c.C.V.2.S.F.F.F.Z.y I L L * b.F.F.F.F.F.F.F.a 1 z.M.c.C.C.C.c.c.c.C.C.C.C.C.C.C.C.C.c.C.C.C.c.",
"c.C.C.C.C.C.C.C.c.c.C.C.c.C.C.c.c.C.C.C.V.a Z.F.F.F.1 J L * b.F.F.F.F.F.F.6 > z.p.c.C.C.c.C.C.c.c.C.C.C.C.C.C.C.c.c.C.C.c.C.C.c.",
"C.c.c.C.C.c.C.c.c.C.C.c.c.c.c.C.C.c.c.C.a n.F.F.F.F.Z.y & b.F.F.F.F.F.F.6 H v a.c.C.C.c.c.c.c.C.C.c.c.C.C.c.C.c.c.C.C.c.c.c.c.C.",
"C.c.C.c.c.C.C.c.c.C.c.c.c.c.c.C.C.c.C.1.n.F.F.F.F.F.F.Z.Z.F.F.F.F.F.F.F.Z.A.>.:.1 B.c.c.c.c.c.C.C.c.C.c.c.C.C.c.c.C.c.c.c.c.c.C.",
"c.c.C.c.c.C.C.C.C.c.c.c.c.c.C.C.c.c.C.h.a :.Z.0.a :.Z.F.F.F.F.a 1 > ;.S.F.F.S.Z.Z.6 f.c.c.c.C.C.c.c.C.c.c.C.C.C.C.c.c.c.c.c.C.C.",
"c.c.C.C.C.C.C.c.c.c.c.c.c.C.C.c.c.c.C.C.B.,.8.i n.1 ;.Z.F.1.2 b.Z.e > ;.S.F.F.6 h.f.c.c.c.C.C.c.c.c.C.C.C.C.C.c.c.c.c.c.c.C.C.c.",
"c.C.C.C.c.C.C.c.C.c.c.c.    C.c.c.C.C.C.1.n.2 b.1.O q Z.F.1 s <.S.Z.> e Z.F.F.Z.6 f.c.c.c.C.C.c.c.C.C.C.c.C.C.c.C.c.c.c.c.C.C.c.",
"C.C.C.C.c.C.c.          U U   C.C.C.C.C.i Z.> n.2 b.i ..! o n.1 Z.F.> O Z.F.3.2 . p.c.C.C.C.C.C.C.C.C.C.c.C.c.c.C.c.c.C.C.C.C.C.",
"C.C.C.C.C.c.    U U U U U   U   C.C.C.C.i Z.> n.e Q ( #.#.] X.% Z.F.> q Z.d.y.> k.C.C.C.C.C.C.C.C.C.C.C.C.c.c.c.C.C.C.C.C.C.C.C.",
"C.C.C.C.c.    U U U U U   U U   C.C.C.C.:.Z.7.2 9 O.&.&.&.&.R d Z.a O f s.s.s.> v.C.C.c.c.C.C.C.C.C.C.C.c.c.c.C.C.C.C.c.c.C.C.C.",
"C.c.C.F. . . .    U   U U U    .F.c.C.C.h.1.Z.Q O.&.&.} { { T e 1 O s y.s.s.2 k.C.C.c.C.C.C.C.C.2.,.V.C.c.C.C.C.C.C.c.C.C.C.C.C.",
"c.C.C.o.F. .  U U   |        .F.$.C.C.C.C.i Z.N.5 T [ #.&.[ T r.y.y.y.s.s.2 . l M.c.c.C.6 > B.1.Z.Z.2.V.C.C.C.C.C.c.c.C.C.C.C.c.",
"C.C.C.o.o.  U    . . . .  U U $.$.C.C.C.C.B.6 y.r.t.< = T T w.s.s.s.s.s.s.y.> X l M.C.6 b.Z.6 n.F.F.1.V.C.C.C.C.C.C.C.C.C.C.c.c.",
"C.C.C.  o.  U   o.F.F.$.          C.C.C.V N w > y.s.y.y.t.t.s.s.s.s.s.s.s.s.y.y., l M.> Z.3.n.F.F.0.7.1.V.C.C.C.C.C.C.C.C.C.C.C.",
"C.C.C.  o.  U   o.o.$.$.$.  $.$.  C.V N K t n.Z.D.F.F.F.F.s.s.s.s.s.s.s.1.y.s.2 c b , b.F.S.F.0.9.Z.D.Z.6 B.c.C.C.C.C.C.C.C.C.C.",
"C.C.C.  o.  U           $.U $.$.  V S K K r i i Z.F.F.F.F.F.F.F.s.s.s.s.y.2 y.e m b + Z.F.F.F.D.D.F.6 > . p.C.C.C.c.C.C.C.C.C.C.",
"c.c.C.  o.      o.o.$.$.$.U $.$.  K K K L I r n.F.3.S.F.F.F.F.F.F.F.F.s.s.;.1 O v @ 4.D.F.F.F.F.6 > k.v.v.C.C.C.C.C.C.c.C.C.C.c.",
"c.C.C.  o.o.U   o.o.$.$.$.U $.$.  K L L L L & > i n.F.F.F.F.F.F.F.F.F.F.s.y.e m S # 6.8.D.F.6 > e.v.C.C.C.C.C.C.c.c.C.C.c.C.C.c.",
"C.c.c.  o.o.U o.o.o.$.$.$.U $.$.  L L L L L K w n.F.a Z.F.F.F.F.F.F.F.F.F.s.i D F # 6.8.8.2 7 l.C.c.c.C.C.c.C.c.c.C.C.c.c.c.c.C.",
"C.c.C.c.c.    o.o.o.$.$.$.U   L L L L L L L L r Z.F.i Z.F.F.F.F.F.d.F.F.F.s.i D G j 5.8.1 c b z M.c.C.c.c.C.C.c.c.C.c.c.c.c.c.C.",
"c.c.C.c.c.C.C.  o.o.$.$.    L L L L L L k k S r Z.F.i Z.F.F.F.F.F.s.s.F.a y.> A G S : > c b b g a.c.C.c.c.C.C.C.C.c.c.c.c.c.C.C.",
"c.c.C.C.C.C.C.c.c.    K L L L L L k $ # 8 Z F r Z.6 P p Z.F.F.F.F.s.s.F.1 y.> A G G + 7 b b b b z a.C.C.C.C.C.c.c.c.c.c.c.C.C.c.",
"c.C.C.C.c.C.C.c.C.c.a.x $ # # # # q.y.y.l S K & > H K r Z.F.a Z.F.s.s.6 B , . A G G A @ v b b b g M.C.C.c.C.C.c.C.c.c.c.c.C.C.c.",
"C.C.C.C.c.C.c.c.C.c.c.M.v.;.-.n.y.s.s.C A K L K J K L I 3 Z.i Z.F.s.s.> A A A F G G G + 8 b b b b z M.C.c.C.c.c.C.c.c.C.C.C.C.C.",
"C.C.C.C.C.c.c.c.C.C.C.2.1.Z.Z.F.F.F.s.l K K L L L L L L # Z.1 e Z.s.s.> A G G G G G G j l.z b b b g M.C.C.c.c.c.C.C.C.C.C.C.C.C.",
"C.C.C.C.c.c.c.C.C.C.2.Z.Z.F.F.F.F.F.s.l K L L L L L L L J 3 H & Z.s.2 B F G G G G G G b , l.z b b g M.C.c.c.c.C.C.C.C.c.c.C.C.C.",
"C.c.C.C.c.C.C.C.C.2.Z.F.F.F.F.F.F.F.C J K L L L L L L L L J K J 3 y.> A G G G G G G n b + v.M.z g u.C.C.c.C.C.C.C.C.c.C.C.C.C.C.",
"c.C.C.C.C.C.C.C.2.Z.F.F.F.F.F.F.F.F.z K L L L L L L L L L L L k 8 , . A G G G G G n S b + v.C.a.a.C.C.C.C.C.C.C.C.c.c.C.C.C.C.c.",
"C.C.C.C.C.C.C.C.1.Z.F.F.F.F.F.F.F.F.z b F K L L L L L L L L k m.N.> c S G G G n b S n b + v.c.c.C.C.C.C.C.C.C.C.C.C.C.C.C.C.c.c.",
"C.C.C.C.C.C.C.a y.s.F.F.F.F.F.F.F.F.z b b n n F K L L L L G @ Z.F.> v b b b b b S n S b + v.C.C.C.C.C.C.C.C.C.C.C.C.C.C.C.C.C.C.",
"C.C.C.C.C.C.c.1 y.s.s.s.F.F.F.F.F.d.l b b b b b n n n n n b v , > c b b b b b b b b b h l.C.C.C.C.C.C.C.C.C.c.C.C.C.C.C.C.C.C.C.",
"C.C.C.C.c.c.C.> y.s.s.s.s.s.s.s.s.s.t.M b b b b b b b b b b b v v b b b b b b b b b b @ v.C.C.C.C.C.C.C.c.c.C.C.C.c.C.C.C.C.C.C.",
"c.c.C.C.C.C.C.B.a y.s.s.s.s.s.s.s.s.s.z b b b b b b b b b b b b b b b b b b b b b b @ 9 M.C.C.c.c.c.C.C.C.C.C.C.C.C.C.c.C.C.C.c.",
"c.C.C.C.C.C.C.C.1 y.s.s.s.s.s.s.s.s.s.W j g b b b b b b b h g @ + + + 8 g b b b @ + / ] ! Q B.c.c.C.C.C.C.C.C.C.c.c.C.C.c.C.C.c.",
"C.c.c.C.C.c.C.c.f.2 e y.s.s.s.s.s.^ W ) ) ) k b b b b h @ i.a.v.v.p.p.M.M., + + / ) [ [ #.%.~ B.C.c.c.C.C.c.C.c.c.C.C.c.c.c.c.C.",
"C.c.C.c.c.C.C.c.c.B.h.2 > > > > 0 @.%.&.{ [ _ k @ + + i.p.c.c.C.C.c.C.c.c.Q ( ) [ [ &.&.*.=.%.~ B.c.C.c.c.C.C.c.c.C.c.c.c.c.c.C.",
"c.c.C.c.c.C.C.C.C.c.c.f.p.p.v.Q +.*.=.=.&.&.{ _ % e.p.c.c.c.C.C.c.c.C.c.c.B.< % +.&.*.=.E R R Y g.c.C.c.c.C.C.C.C.c.c.c.c.c.C.C.",
"c.c.C.C.C.C.C.c.c.c.c.c.c.C.C., = T %.=.=.=.&.; e.c.c.c.c.C.C.c.c.c.C.C.C.C.B.p.4 = @.=.R x.M.g.c.c.C.C.C.C.C.c.c.c.c.c.c.C.C.c.",
"c.C.C.C.c.C.C.c.C.c.j.c.c.C.C.f.p., @.=.=.E - e.C.c.c.c.c.C.C.c.c.C.C.C.c.C.C.c.B.p.4 = o v.C.c.c.C.C.C.c.C.C.c.C.c.c.c.c.C.C.c.",
"C.C.C.C.c.C.c.c.C.c.c.C.C.C.C.C.C.> = = = l.p.c.C.c.c.C.C.C.C.C.C.C.C.C.c.C.c.c.C.c.f.v.v.C.C.C.C.C.C.C.c.C.c.c.C.c.c.C.C.C.C.C.",
"C.C.C.C.C.c.c.c.C.C.C.C.C.C.C.C.C.B.v.v.v.j.c.c.C.C.C.C.C.C.C.C.C.C.C.C.C.c.c.c.C.C.C.C.C.C.C.C.C.C.C.C.C.c.c.c.C.C.C.C.C.C.C.C.",
"C.C.C.C.c.c.c.C.C.C.C.c.c.C.C.C.C.C.C.C.j.j.j.C.C.C.C.c.c.C.C.C.C.C.C.C.c.c.c.C.C.C.C.c.c.C.C.C.C.C.C.C.c.c.c.C.C.C.C.c.c.C.C.C.",
"C.c.C.C.c.C.C.C.C.C.c.C.C.C.C.C.C.c.C.C.j.C.C.C.C.C.c.C.C.C.C.C.C.c.C.C.c.C.C.C.C.C.c.C.C.C.C.C.C.c.C.C.c.C.C.C.C.C.c.C.C.C.C.C.",
"c.C.C.C.C.C.C.C.C.c.c.C.C.C.C.c.c.C.C.C.C.C.C.C.C.j.j.C.C.C.C.j.c.C.C.C.C.C.C.C.C.c.c.C.C.C.C.c.c.C.C.C.C.C.C.C.C.c.c.C.C.C.C.c.",
"C.C.C.C.C.C.C.C.C.C.C.C.C.C.c.c.C.C.C.C.C.C.C.C.C.C.C.C.C.C.j.j.C.C.C.C.C.C.C.C.C.C.C.C.C.C.c.c.C.C.C.C.C.C.C.C.C.C.C.C.C.C.c.c.",
"C.C.C.C.C.C.C.C.C.C.C.C.C.C.C.C.C.C.C.C.C.C.C.C.C.C.C.C.C.C.C.C.C.C.C.C.C.C.C.C.C.C.C.C.C.C.C.C.C.C.C.C.C.C.C.C.C.C.C.C.C.C.C.C.",
"C.C.C.C.C.C.c.C.C.C.C.C.C.C.C.C.C.C.C.C.C.C.j.C.C.C.C.C.C.C.C.C.C.C.C.C.C.C.c.C.C.C.C.C.C.C.C.C.C.C.C.C.C.C.c.C.C.C.C.C.C.C.C.C."
};
