/* XPM */
static char *e551ba5efada4a36932db905b67ba053lTeMMHxUUsoca8of[] = {
/* columns rows colors chars-per-pixel */
"64 64 26 1 ",
"  c gray9",
". c #7F3F15",
"X c #5A5A5A",
"o c #811007",
"O c #821108",
"+ c #C71912",
"@ c #C81A13",
"# c #814016",
"$ c #EB4032",
"% c #FF4F41",
"& c #D3843B",
"* c #D3853C",
"= c #D5863C",
"- c #FDC757",
"; c #FEC858",
": c #828289",
"> c #AAABB2",
", c #FEF394",
"< c #D2D2D2",
"1 c gray83",
"2 c #CEEAE9",
"3 c #D0ECEB",
"4 c #EAFDFB",
"5 c #EBFEFC",
"6 c #ECFFFD",
"7 c white",
/* pixels */
"6666336663666666666633666366666666663366636666666666336663666666",
"3366666666636663336666666663666333666666666366633366666666636663",
"3666666633663663366666663366366336666666336636633666666633663663",
"6336636336633336633663633663333663366363366333366336636336633336",
"636336633633333663::366336333336636336633::333366363366336333336",
"336336666333336633:7:666:3333366336:3666:1:333663363366663333366",
"336666633333366333 77:6 7:33366333:7:66 71:336633366666333333663",
"366636636333366336 777: 7:33366336:7:6 711:336633666366363333663",
"6666363363366666666 77 77 3666666 111 771 3666666666363363366666",
"6666633366666666666 77 77 66OOOOO 11:7711 6666666666633366666666",
"66663336666336666666 7111: O%%%%% 177711 66336666666333666633666",
"636636666636666663:: 77111 %%%%% 7777711 :::66666366366666366666",
"366666666336666336:77 71111 $$@ 7777711:111:66633666666663366663",
"6666666666666633666:7777111 @@ 7777711111  666336666666666666633",
"66666666666666666666 7771111  777711111  66666666666666666666666",
"666666366666666666666 777117777771111  @O66666666666663666666666",
"666633666366666666663 77XX77771XX  1111  ::666666666336663666666",
"336666666663666333666 7X17 111XX71X 111111:366633366666666636663",
"36666666336636633666:7X:7 7 1X 7 7:  1111 6636633666666633663663",
"63366363366333366336:7 :7  ###   7:  111:1:333366336636336633336",
"6363366336333OO66363:7  :7#,,;# 7:X  111111:33366363366336333336",
"336336666333 %%OO363:77   ,,,-;#X   1111:   33663363366663333366",
"336666633333 %%%%OOO5 77< --#.##   11111 33336633366666333333663",
"3666366363333 %%%%@@oO 7<     =#11111111 33336633666366363333663",
"6666363363366 $%%@@@+ 77<<   &#11111111 633666666666363363366666",
"66666333666666 @@@@@+  :7<# *.111111111 O66666666666633366666666",
"66663336666336 @@@@@++ 77<<##<1111111:11 O6336666666333666633666",
"636636666636666 @@@@++  77<<<<11111:11:  @O666666366366666366666",
"3666666663366663 @@@++$ 7777<<11111: 1 @@@@O66633666666663366663",
"66666666666666336 @@O$O7777777111111   @@@@@O6336666666666666633",
"666666666666666666  o$O7777777111111 @@@@$%%O6666666666666666666",
"6666663666666666666O%%o7 77771111 11 @@@%%%%%O666666663666666666",
"6666336663666666666O%%OO 77711111  1 @O@%%%%%O666666336663666666",
"3366666666636663336O%%%@@O771111 @@ @@   %%%% 633366666666636663",
"366666663366366336O%%%%%$O71111 @@@   >>> %%% 633666666633663663",
"633663633663333  #%%%%%%%%O111 @@@X11171> $%@ X66336636336633336",
"636336633633333 ; %%%%%%%%O11 @@@@X1X77>> @@ 71X6363366336333336",
"3363366663333  #;; %%%%%%%%O @@@@@  77>> @@@ 777X363366663333366",
"3366666333333 ;#;;#%%%%%%%%%%%%@@@ 7777 @@@ 77777X66666333333663",
"3666366363333 ;;;;;#%%%%%%  @%%%%@@ 777    7777777X6366363333663",
"66663633633666#;;;;#%%%%% 71O%%%%@@ 77 @@@@O777777X6363363366666",
"66666333666666#;;;;=#%%%%O1> $%%@@@@  @@@@@O77777>7 633366666666",
"666633366663366#;;== %%%%$  @$%@@@@@@@@@@@@O7777>7> 333666633666",
"636636666636666#==== %%$@@@@@@@@@@@@@@@@@@@O177>7>7 366666366666",
"3666666663366663 == @@@@@@@@@@@@@@@@@@@%@@ >>>>>>> 6666663366663",
"66666666666666336  @@@@@@@@   @@@@@@@@%@%@ >>>>>>> 6666666666633",
"6666666666666666666 @@@@@  666 @@@@@@@@%@ >>>>>>> 66666666666666",
"66666636666666666666     666666  @@@@@   6 >>>>  666663666666666",
"666633666366666666663366636666666     ==##6    66666336663666666",
"3366666666636663336666666663666333 =======#366633366666666636663",
"36666666336636633666666633663663366 ====#;; 36633666666633663663",
"633663633663333663366363366333366336  ;;;#  33366336636336633336",
"63633663363333366363366336333336636336    3333366363366336333336",
"3363366663333366336336666333336633633666633333663363366663333366",
"3366666333333663336666633333366333666663333336633366666333333663",
"3666366363333663366636636333366336663663633336633666366363333663",
"6666363363366666666636336336666666663633633666666666363363366666",
"6666633366666666666663336666666666666333666666666666633366666666",
"6666333666633666666633366663366666663336666336666666333666633666",
"6366366666366666636636666636666663663666663666666366366666366666",
"3666666663366663366655555225556336666666633666633666666663366663",
"6666666666666633666654444444443366666666666666336666666666666633",
"6666666666666666666654444444446666666666666666666666666666666666",
"6666663666666666666654244444446666666636666666666666663666666666"
};
