/* XPM */
static char *_51620c8d68a4a62a563b3de9dceb9dehXcWeLseGQeToGno[] = {
/* columns rows colors chars-per-pixel */
"64 64 32 1 ",
"  c black",
". c gray9",
"X c #7F3F15",
"o c gray35",
"O c #811007",
"+ c #821108",
"@ c #C71A13",
"# c #C81A13",
"$ c #FF343C",
"% c #804016",
"& c #EB4032",
"* c #FF4F41",
"= c #D3843B",
"- c #D3853C",
"; c #D5863C",
": c #FF9131",
"> c #FFBB3D",
", c #FF874E",
"< c #FFA769",
"1 c #FDC757",
"2 c #FFC958",
"3 c #828289",
"4 c #AAABB2",
"5 c #FDF294",
"6 c #D2D2D2",
"7 c gray83",
"8 c #CFEBEA",
"9 c #D0ECEB",
"0 c #EAFDFB",
"q c #EBFEFC",
"w c #ECFFFD",
"e c white",
/* pixels */
"wwww99www9wwwwwwwwww99www9wwwwwwwwww99www9wwwwwwwwww99www9wwwwww",
"99wwwwwwwww9www999wwwwwwwww9www999wwwwwwwww9www999wwwwwwwww9www9",
"9wwwwwww99ww9ww99wwwwwww99ww9ww99wwwwwww99ww9ww99wwwwwww99ww9ww9",
"w99ww9w99ww9999ww99ww9w99ww9999ww99ww9w99ww9999ww99ww9w99ww9999w",
"w9w99ww99w99999ww9w99ww99w99999ww9w99ww99w99999ww9w99ww99w99999w",
"99w99wwww99999ww99w99wwww99999ww99w99wwww99999ww99w99wwww99999ww",
"99wwwww999999ww999wwwww999999ww999wwwww999999ww999wwwww999999ww9",
"9www9ww9w9999ww99www9ww9w9999ww99www9ww9w9999ww99www9ww9w9999ww9",
"wwww9w99w99wwwwwww339w99w99wwwwwwwww9w99w33wwwwwwwww9w99w99wwwww",
"wwwww999wwwwwwwwww3e39993wwwwwwwwww3w999373wwwwwwwwww999wwwwwwww",
"wwww999wwww99wwwww.ee39.e3w99wwwww3e399.e7399wwwwwww999wwww99www",
"w9ww9wwwww9wwwwww9.eee3.e39wwwwww93e3w.e773wwwwww9ww9wwwww9wwwww",
"9wwwwwwww99wwww  ww.ee.ee.9wwww99.777.ee7.9wwww99wwwwwwww99wwww9",
"wwwwwwwwww     $$ w.ee.ee.ww+++++.773ee77.wwww99wwwwwwwwwwwwww99",
"wwwwwwwww  $$$$$ $ w.e7773.+*****.7eee77.wwwwwwwwwwwwwwwwwwwwwww",
"wwwwww9w  $$$$$ $$ 3.ee777.*****.eeeee77.333wwwwwwwwww9wwwwwwwww",
"wwww99e>>>  $ $$$ >ee.e7777.&&#.eeeee7737773wwwwwwww99www9wwwwww",
"99wwww,e> $$ :   >e<eeee777.##.eeeee77777..9www999wwwwwwwww9www9",
"9wwwww,, $ >>>> $$<<.eee7777..eeee77777..9ww9ww99wwwwwww99ww9ww9",
"w99ww9 , $ ,ee<     w.eee77eeeeee7777..#+ww9999ww99ww9w99ww9999w",
"w9w99w , $ ,,<<< << 8.eeooeeee7oo..7777..339999ww9w99ww99w99999w",
"99w99w , $     <$<< 8.eo6e.666ooe7o.7777773999ww99w99wwww99999ww",
"99wwww ,   ,,<<<$<< 3eo3e.e.6o.e.e3..7777.999ww999wwwww999999ww9",
"9www9w ,,$ ,,<<<$<< 3e.3e..%%X...e3..77737399ww99www9ww9w9999ww9",
"wwww9w ,,$,,,<<<$<< 3e..3e%551%.e3o..7777773wwwwwwww9w99w99wwwww",
"wwwww999  ,,,<<<$ qw3ee...55512%o...77773...wwwwwwwww999wwwwwwww",
"wwww999www ,,<<  +++8.ee6.11%X%%...77777.ww99wwwwwww999wwww99www",
"w9ww9wwwww9w  ****##O+.e6.....;%77777777.w9wwwwww9ww9wwwww9wwwww",
"9wwwwwwww99ww.&**###@.ee66...=%77777777.w99wwww99wwwwwwww99wwww9",
"wwwwwwwwwwwwww.#####@..3e6%.-%777777777.+wwwww99wwwwwwwwwwwwww99",
"wwwwwwwwwwwwww.#######.ee77%%77777777377.+wwwwwwwwwwwwwwwwwwwwww",
"wwwwww9wwwwwwww.######..ee7777777773773..#+wwwwwwwwwww9wwwwwwwww",
"wwww99www9wwwwww.#####&.eeee77777773.7.####+wwwwwwww99www9wwwwww",
"99wwwwwwwww9www99.##+&+eeeeeee777777...#####+ww999wwwwwwwww9www9",
"9wwwwwww99ww9ww99w..+&+eeeeeee777777.####&**+ww99wwwwwww99ww9ww9",
"w99ww9w99ww9999ww99+**+e.eeee7777.77.###*****+9ww99ww9w99ww9999w",
"w9w99ww99w99999ww9w+**++.eee77777..7.#+#*****+9ww9w99ww99w99999w",
"99w99wwww99999ww99w+***##+ee7777.##.##...****.ww99w99wwww99999ww",
"99wwwww999999ww999+*****&+e7777.###...444.***.w999wwwww999999ww9",
"9www9ww9w9999ww..%********+777.###o777e74.&*#.o99www9ww9w9999ww9",
"wwww9w99w99wwww.2.********+77.####o7oee44.##.e7owwww9w99w99wwwww",
"wwwww999wwwww..%22.********+.#####..ee44.###.eeeowwww999wwwwwwww",
"wwww999wwww99.2%22%************###.eeee.###.eeeeeoww999wwww99www",
"w9ww9wwwww9ww.22222%******..#****##.eee....eeeeeeeow9wwwww9wwwww",
"9wwwwwwww99www%2222%*****.e7+****##.ee.####+eeeeeeowwwwww99wwww9",
"wwwwwwwwwwwwww%2222;%****+74.&**####..#####+eeeee4e.wwwwwwwwww99",
"wwwwwwwwwwwwwww%22;;.****&..#&*############+eeee4e4.wwwwwwwwwwww",
"wwwwww9wwwwwwww%;;;;.**&###################+7ee4e4e.ww9wwwwwwwww",
"wwww99www9wwwwww.;;.###################*##.4444444.w99www9wwwwww",
"99wwwwwwwww9www99..########...########*#*#.4444444.wwwwwwww9www9",
"9wwwwwww99ww9ww99ww.#####..w9w.########*#.4444444.wwwwww99ww9ww9",
"w99ww9w99ww9999ww99w.....ww9999..#####...w.4444..99ww9w99ww9999w",
"w9w99ww99w99999ww9w99ww99w99999ww.....;;%%9....ww9w99ww99w99999w",
"99w99wwww99999ww99w99wwww99999ww99.;;;;;;;%999ww99w99wwww99999ww",
"99wwwww999999ww999wwwww999999ww999w.;;;;%22.9ww999wwwww999999ww9",
"9www9ww9w9999ww99www9ww9w9999ww99www..222%..9ww99www9ww9w9999ww9",
"wwww9w99w99wwwwwwwww9w99w99wwwwwwwww9w....9wwwwwwwww9w99w99wwwww",
"wwwww999wwwwwwwwwwwww999wwwwwwwwwwwww999wwwwwwwwwwwww999wwwwwwww",
"wwww999wwww99wwwwwww999wwww99wwwwwww999wwww99wwwwwww999wwww99www",
"w9ww9wwwww9wwwwww9ww9wwwww9wwwwww9ww9wwwww9wwwwww9ww9wwwww9wwwww",
"9wwwwwwww99wwww99wwwqqqqq88qqqw99wwwwwwww99wwww99wwwwwwww99wwww9",
"wwwwwwwwwwwwww99wwwwq00000000099wwwwwwwwwwwwww99wwwwwwwwwwwwww99",
"wwwwwwwwwwwwwwwwwwwwq000000000wwwwwwwwwwwwwwwwwwwwwwwwwwwwwwwwww",
"wwwwww9wwwwwwwwwwwwwq080000000wwwwwwww9wwwwwwwwwwwwwww9wwwwwwwww"
};
