/* XPM */
static char *s56Sywjorya_png[] = {
/* columns rows colors chars-per-pixel */
"64 64 241 2 ",
"   c #040402",
".  c #0B0201",
"X  c #0B0B09",
"o  c #1A0101",
"O  c #150805",
"+  c #1A170A",
"@  c #110E10",
"#  c #151615",
"$  c #1A1414",
"%  c #171817",
"&  c #1B1A1B",
"*  c #2A0100",
"=  c #270806",
"-  c #3B0006",
";  c #39070B",
":  c #261304",
">  c #33140A",
",  c #251715",
"<  c #351714",
"1  c #2D2714",
"2  c #1E1E20",
"3  c #241D22",
"4  c #242424",
"5  c #393B3B",
"6  c #53090C",
"7  c #47160C",
"8  c #65000E",
"9  c #78090A",
"0  c #650313",
"q  c #7C071E",
"w  c #661A17",
"e  c #7C1815",
"r  c #512D16",
"t  c #742B15",
"y  c #790E22",
"u  c #483A26",
"i  c #4E302C",
"p  c #733136",
"a  c #7B4017",
"s  c #504C3D",
"d  c #795330",
"f  c #463C40",
"g  c #7F3D49",
"h  c #50534A",
"j  c #595959",
"k  c #6B5656",
"l  c #656969",
"z  c #6C7371",
"x  c #747374",
"c  c #787A79",
"v  c #89050B",
"b  c #8A0515",
"n  c #930115",
"m  c #990515",
"M  c #93011A",
"N  c #9A001A",
"B  c #961011",
"V  c #A7000A",
"C  c #B60009",
"Z  c #BC000B",
"A  c #A60413",
"S  c #A4001B",
"D  c #AC001D",
"F  c #B60318",
"G  c #BC001D",
"H  c #BD1913",
"J  c #8F2E15",
"K  c #A82318",
"L  c #B72519",
"P  c #970422",
"I  c #B30124",
"U  c #BD0022",
"Y  c #B20922",
"T  c #B20F28",
"R  c #BC1332",
"E  c #9C3323",
"W  c #A92B22",
"Q  c #BA2422",
"!  c #A8372C",
"~  c #C1000A",
"^  c #CB0913",
"/  c #C3001E",
"(  c #CA001D",
")  c #D50016",
"_  c #D40F13",
"`  c #C51B14",
"'  c #C91815",
"]  c #C91A14",
"[  c #E70014",
"{  c #EA0015",
"}  c #E90119",
"|  c #C62417",
" . c #D3261C",
".. c #FE2A1C",
"X. c #C30021",
"o. c #CB0122",
"O. c #C00922",
"+. c #D60325",
"@. c #D40028",
"#. c #CB172E",
"$. c #E40129",
"%. c #EB002C",
"&. c #E60334",
"*. c #EA0031",
"=. c #F60D37",
"-. c #CC302B",
";. c #DB3532",
":. c #F93223",
">. c #EF3333",
",. c #84551D",
"<. c #8C5A25",
"1. c #83542B",
"2. c #8C5B29",
"3. c #945725",
"4. c #B5432B",
"5. c #B54B35",
"6. c #926C35",
"7. c #946C3D",
"8. c #9C7534",
"9. c #BB673C",
"0. c #A57934",
"q. c #B97835",
"w. c #CC4A36",
"e. c #E94A3C",
"r. c #FE4C3A",
"t. c #FA523F",
"y. c #CD723B",
"u. c #A3374D",
"i. c #FF2A45",
"p. c #FF3245",
"a. c #FF3948",
"s. c #917247",
"d. c #BC7B43",
"f. c #A1635A",
"g. c #8E7577",
"h. c #C65245",
"j. c #FF4D42",
"k. c #F64A48",
"l. c #EB544F",
"z. c #FE5243",
"x. c #FA5746",
"c. c #D3704F",
"v. c #EA6D53",
"b. c #E07A6E",
"n. c #AC853B",
"m. c #BE8339",
"M. c #D1883D",
"N. c #9F805B",
"B. c #BF9241",
"V. c #B0986D",
"C. c #B6AE74",
"Z. c #C39343",
"A. c #C99449",
"S. c #CE924E",
"D. c #ED8C54",
"F. c #DCB554",
"G. c #DCB955",
"H. c #DEB45B",
"J. c #D7B858",
"K. c #E4AD59",
"L. c #E2B35A",
"P. c #E2B859",
"I. c #F38E69",
"U. c #DCB662",
"Y. c #C7AD74",
"T. c #EEB16D",
"R. c #ECC65C",
"E. c #DAC271",
"W. c #E8C968",
"Q. c #F4CA6B",
"!. c #F6D967",
"~. c #F4D56C",
"^. c #F9D66E",
"/. c #F4DA6E",
"(. c #F9D96E",
"). c #F6CA77",
"_. c #EAD570",
"`. c #EFDC76",
"'. c #F6D472",
"]. c #FAD572",
"[. c #F5DA71",
"{. c #F9DA72",
"}. c #F9D97A",
"|. c #F7E06F",
" X c #F9E375",
".X c #7C7D83",
"XX c #917D83",
"oX c #7A8989",
"OX c #838385",
"+X c #888183",
"@X c #848589",
"#X c #8B8C91",
"$X c #959895",
"%X c #A4A29F",
"&X c #9E9FA1",
"*X c #ACAFAC",
"=X c #B7B8B7",
"-X c #DB9D9B",
";X c #C0BCB9",
":X c #AEC7BA",
">X c #D2D28E",
",X c #ECDA87",
"<X c #FDD584",
"1X c #EAD194",
"2X c #FFEE84",
"3X c #FCE78A",
"4X c #FFF184",
"5X c #FEF28D",
"6X c #F7EC94",
"7X c #FCEE94",
"8X c #D3CEB4",
"9X c #EFDEA3",
"0X c #EDEBB1",
"qX c #AFCAC6",
"wX c #B7C8C8",
"eX c #BED8E1",
"rX c #C9C8C6",
"tX c #CDCECE",
"yX c #C8D8C6",
"uX c #D5D2CC",
"iX c #C7D9D7",
"pX c #D3D3D3",
"aX c #D7D8D9",
"sX c #DBDBDB",
"dX c #EAD8D7",
"fX c #C6E0DF",
"gX c #F7F9D7",
"hX c #C9E4E3",
"jX c #CFEBEA",
"kX c #D6E9E5",
"lX c #D0ECEB",
"zX c #DFF1EF",
"xX c #E3E3E2",
"cX c #E7E8E8",
"vX c #EDEDED",
"bX c #EFF0EF",
"nX c #E4F6F3",
"mX c #ECFFFD",
"MX c #F5F4F5",
"NX c #F8FAF6",
"BX c #FDFDFD",
/* pixels */
"mXmXmXmXlXlXmXmXmXlXmXmXmXmXmXmXmXmXmXmXlXlXmXmXmXlXmXmXmXmXmXmXmXmXmXmXlXlXmXmXmXlXmXmXmXmXmXmXmXmXmXmXlXlXmXmXmXlXmXmXmXmXmXmX",
"lXlXmXmXmXmXmXmXmXmXmXlXmXmXmXlXlXlXmXmXmXmXmXmXmXmXmXlXmXmXmXlXlXlXmXmXmXmXmXmXmXmXmXlXmXmXmXlXlXlXmXmXmXmXmXmXmXmXmXlXmXmXmXlX",
"lXmXmXmXmXmXmXmXlXlXmXmXlXmXmXlXlXmXmXmXmXmXmXmXlXlXmXmXlXmXmXlXlXmXmXmXmXmXmXmXlXlXmXmXlXmXmXlXlXmXmXmXmXmXmXmXlXlXmXmXlXmXmXlX",
"mXlXlXmXmXlXmXlXlXmXmXlXlXlXlXmXmXlXlXmXmXlXmXlXlXmXmXlXlXlXlXmXmXlXlXmXmXlXmXlXhX, S P 2 lXlXmXmXlXlXmXmXlXmXlXlXmXmXlXlXlXlXmX",
"mXlXmXlXlXmXmXlXlXmXlXlXlXlXlXmXmXlXmXlXlXmXmXlXlXmXlXlXlXlXlXmXmXlXmXlXlXmXmXf.V { { { { $XlXmXmXlXmXlXlXmXmXlXlXmXlXlXlXlXlXmX",
"lXlXmXlXlXmXmXmXmXlXlXlXlXlXmXmXlXlXmXlXlXmXmXmXmXlXlXlXlXlXmXmXlXlXmXlXlXmXp } { { } Z Z { mXmXlXlXmXlXlXmXmXmXmXlXlXlXlXlXmXmX",
"lXlXmXmXmXmXmXlXlXlXlXlXlXmXmXlXlXlXmXmXmXmXmXlXlXlXlXlXlXmXmXlXlXlXmXmXmX7 { [ [ } ~ C Z C o lXlXlXmXmXmXmXmXlXlXlXlXlXlXmXmXlX",
"lXmXmXmXlXmXmXlXmXlXlXlXlXmXmXlXlXmXmXmXlXmXmXlXmXlXlXlXlXmXmXlXjXmXmXmXhXZ [ { { ) Z Z < C C iXlXmXmXmXlXmXmXlXmXlXlXlXlXmXmXlX",
"mXmXmXmXlXmXlXlXmXlXlXmXmXmXmXmXmXmXmXmXlXmXlXlXmXlXlXmXmXmXmXmXmXmXmXmX) } { { ) ~ Z S mXX C ; mXmXmXmXlXmXlXlXmXlXlXmXmXmXmXmX",
"mXmXmXmXmXlXlXlXmXmXmXmXmXmXmXmXmXmXmXmXmXlXlXlXmXmXmXmXnXnXmXmXmXmXmXo } { { [ ~ Z C v mXmXf A nXmXmXmXmXlXlXlXmXmXmXmXmXmXmXmX",
"mXmXmXmXlXlXlXmXmXmXmXlXlXmXmXmXmXmXmXmXlXlXlXmXmXmXmXlXOXtXmXmXmXwXO } { { ) Z Z A XXV X OXBXMXj mXmXmXlXlXlXmXmXmXmXlXlXmXmXmX",
"mXlXmXmXlXmXmXmXmXmXlXmXmXmXmXmXmXlXmXmXlXmXmXmXmXmXlXmXOXaXX mXmXaXOXNX) ( Z Z V #XBX; g.BXBXvXNXoXmXmXlXmXmXmXmXmXlXmXmXmXmXmX",
"lXmXmXmXmXmXmXmXmXlXlXmXmXmXmXlXlXmXmXmXmXmXmXmXmXlXlXmX=XtXBX& jXpX@XNXsXdX= * 6 g.BX, MXBXNX4 fXmXmXmXmXmXmXmXmXlXlXmXmXmXmXlX",
"mXmXmXmXmXmXmXmXmXmXmXmXmXmXlXlXmXmXmXmXmXmXmXmXmXmXmXmXmX4 pXBXBX=XpX# BXBXBXBXcX% BXsXMXBX5 lXmXmXmXmXmXmXmXmXmXmXmXmXmXmXlXlX",
"mXmXmXmXmXmXmXmXmXmXmXmXmXmXmXmXmXmXmXmXmXmXmXmX6XmXmXmXmXmXsXpXBXBXpX& NXBXBXBXx OXpXpXNX& mXmXmXmXmXmXmXmXmXmXmXmXmXmXmXmXmXmX",
"mXmXmXmXmXmXlXmXmXmXmXmXmXmXmXmXmXmXmXmXmXmXlX0X0XmXmXOXOXc xXpXBXBXBXNXh $XNXNXx aXpXsXBX# .XnXmXmXmXmXmXmXlXmXmXmXmXmXmXmXmXmX",
"mXmXmXmXlXlXmXmXmXlXmXmXmXmXmXmXmXmXmXmXlXlXmXmXmXlXmXnXl l *XpXpXMXBXBXxXi < < x pXtXvX$XNX=XmXmXmXmXmXlXlXmXmXmXlXmXmXmXmXmXmX",
"lXlXmXmXmXmXmXmXmXmXmXlXmXmXmXlXlXlXmXmXmXmXmXmXmXmXmXlXmXmX# pXpXpXpXBXBXBX, , pXpXpXBXBX& mXlXlXlXmXmXmXmXmXmXmXmXmXlXmXmXmXlX",
"lXmXmXmXmXmXmXmXlXlXmXmXlXmXmXlXlXmX3XmXmXmXmXmXlXlXmXmXlXmXL , X pXpXpXBXBXBXBXcXpXBXBX# mXmXlXlXmXmXmXmXmXmXmXlXlXmXmXlXmXmXlX",
"mXlXlXmXmXlXmXlXlXmXmXlXlXlXlXmXmXjX0XgXmXlXmXlXlXmXmXlX@X#X5 tXpX=X4 5 x =XMXMXxXc x sX& lXlXmXmXlXlXmXmXlXmXlXlXmXmXlXlXlXlXmX",
"mXlXmXlXlXmXmXlXlXmXlXlXlXlXlXmXmXlXmXlXlXmXmXlXlXmXlXjXjX5 pXpXsX# c MXj 4 l tX@X4 NXc aX=XlXmXmXlXmXlXlXmXmXlXlXmXlXlXlXlXlXmX",
"lXlXmXlXlXmXmXmXmXlXlXlXlXlXmXmXlXlXmXlXlXmXmXmXmXlXlXjX@XrXpXpXsX# OXNX& % J a 1 # BXx bX@XmXmXlXlXmXlXlXmXmXmXmXlXlXlXlXlXmXmX",
"lXlXmXmXmXmXmXlXlXlXlXlXlXmXmXlXjXjXmXmXmXmXmXlXlXlXjXOXpXpXpXpXsX% j @X=Xt R.7XA.NXOX# bX@XmXlXlXlXmXmXmXmXmXlXlXlXlXlXlXmXmXlX",
"lXmXmXmXlXmXmXlXmXlXlXlXlXmXmXlXjXmXmXmXlXmXmXlXmXlXlXhXhXnXpXpXpXc & # u S.M.J. X@ j x %XmXmXlXlXmXmXmXkXmXmXlXmXlXlXlXlXmXmXlX",
"mXmXmXmXlXmXlXlXmXlXlXmXmXmXmXmXmXmXmXmXlXmXlXlXmXlXlXmXmXmXsXpXpXpXpXpX-XM.+ + + % pXsXw u.mXmXmXmXmXmXlXmXlXlXmXlXlXmXmXmXmXmX",
"mXmXmXmXmXlXlXlXmXmXmXmXmXmXmXmXmXmXmXmXmXlXlXlXmXmXmXmXmXmX% pXpXpXpXpXuXd M.% $ sXpXNX3 -XmXmXmXmXmXmXmXlXlXlXmXmXmXmXmXmXmXmX",
"mXmXmXmXlXlXlXmXmXmXmXlXlXmXmXmXmXmXmXmXlXlXlXmXmXmXmXjXjXxX< pXtXpXpXpXpXpX,.c.r uXBXOX, b.u mXmXmXmXmXlXlXlXmXmXmXmXlXlXmXmXmX",
"mXlXmXmXlXmXmXmXmXmXlXmXmXmXmXmXmXlXmXmXlXmXmXmXmXmXlXmXzXd i @XrX&XpXpXpXpXpXrXuXNXBX2 W ' L g.mXlXmXmXlXmXmXmXmXmXlXmXmXmXmXmX",
"lXmXmXmXmXmXmXmXmXlXlXmXmXmXmXlXlXmXmXmXmXmXmXmXmXlXlXmX= Q | $ aXj pXpXpXpXpXpXBXBXBX7 | ' ' ' $ mXmXmXmXmXmXmXmXlXlXmXmXmXmXlX",
"mXmXmXmXmXmXmXmXmXmXmXmXmXmXlXlXmXmXmXmXmXmXmXmXmXmXmXmX: ` ' = $ $XpXpXpXpXBXBXBXBXBXdX;.' ' ` ' & mXmXmXmXmXmXmXmXmXmXmXmXlXlX",
"mXmXmXmXmXmXmXmXmXmXmXmXmXmXmXmXmXmXmXmXmXmXmXmXmXmXmXmX: ' L ' L $XpXh pXpXsXBXBXBXj dXe.;.'  . .6 mXmXmXmXmXmXmXmXmXmXmXmXmXmX",
"mXmXmXmXmXmXlXmXmXmXmXmXmXmXmXmXmXmXmXmXmXmXlXmXmXmXnX$ ^ v ` ` L $X  & pXpXpXpXBXBX$ 9 t.z.' x.j.x.#XmXmXmXlXmXmXmXmXmXmXmXmXmX",
"mXmXmXmXlXjXmXmXmXlXmXmXmXmXmXmXmXmXmXmXlXlXmXmXmXlXg.` ` L z.>. .6 L H s >X`.7XgX9 |  .x.z.e -.r.z.r.x.lXiXmXmXmXlXmXmXmXmXmXmX",
"lXlXmXmXmXG.$ # X >X>XT.T.mXmXwXlXlXmXmXmXmXmXmXmXmX, | H j.r.j.z.e L Q w ^././.4Xv.a.a.a.=.a.O.9 z.c.. - sXmXmXmXmXmXlXmXmXmXlX",
"lXmXmXmXiX<XF.F.F.G.G.G.F.G.E.U.W.}.).<X:XmXmXmXhX;Xg.` L e.j.j.< $Xl +XsXY.T./.[.4X>.p.p.p.p.p.p.;.;./.C.uXmXmXlXlXmXmXlXmXmXlX",
"mXlXlXiXW.}.M M M M M M P P M P 4.F.L.!.`.5XmXlXBXBX$X` ` > z.x.& pXBXvXwX4.D 5.[. X4XD.=.i.i.i.p.i.p.F.C.*XmXlXlXmXmXlXlXlXlXmX",
"mXlXmXqX_.N G  Xc.X.{.3XU <X4XG S M n K.W./.. s BXBXBX# ` $ `  ., @X*XBX8X= / U J /.4X4X%.%.%.%.%.*.$.F.C.*XmXlXlXmXlXlXlXlXlXmX",
"lXlXmXqX).]./ K A G W ! U h.9.G c. X/ S 4.'.(.+ %XBXBX= ' ' * | ` K @ BXBX* ( %.D M M M n N N N N ........-XmXmXmXlXlXlXlXlXmXmX",
"lXlXmXmXx {./.3X@.( / G / X.X.X.S b / <Xl.n P.}.1 8XBXv ' ' ^ 7 > $ 7 $ BXP o | ../ X.X./  .:.:.:.m n B e g.mXlXlXlXlXlXlXmXmXlX",
"lXmXmXmXlX, , X R / / X.X.X.X.X./ / X.4Xw.o.n F.{..   b ` ' ' _ ' ' ` H 6.M I o o :.:.:.:.w J J A D p.&.k eXmXlXmXlXlXlXlXmXmXlX",
"mXmXmXmXlXmXlXiXR / / V X.X.X.F / X.X.n U '.5XB W.'.  $ W ' ' ' ' ' ' ' W.M U S $.8 8 8 r 7X4X2XI.%.X.a.D mXlXlXmXlXlXmXmXmXmXmX",
"mXmXmXmXmXlXlXiXR / X.k.X.X.X.b.X.X.X.X.X.1X).U c.^./.2X: ' ^ t.' ' ' ` W.n X.N %.%.%.%.v.4X4X4XI.%.X.p.I lXlXlXmXmXmXmXmXmXmXmX",
"mXmXmXmXlXlXlXzX#./ X.X.X.X.X.X.X.X.X.X.X.U G T I.4.R./.2X1 j.H ' ` ' ` W.M X.N %.%.%.%.D.4X4X4XD.*.X.p.Y lXlXmXmXmXmXlXlXmXmXmX",
"mXlXmXmXlXmXmXzX#./ X.o.X.X.X.X.X.X.X.X.X.X.X.Q /.G b G./.[.+ : L L L D.R.M X.N =.%.%.+.<X2X2X2X3X+./ p.; mXmXmXmXmXlXmXmXmXmXmX",
"lXmXmXmXmXmXmXzXR o.G G X.X.G G X.X.U U X.X.X.U M X./ B J./././.,XE.Y.(.E X.n U =.%.%.%.%.;.;.e.%.%./ p.; mXmXmXmXlXlXmXmXmXmXlX",
"mXmXmXmXmXmXmXmXo %.U -.X.X.X.l.X.X.G I.X.X.X.X.X.X._.).M L.L.L.G.F.G.T.D X.n ( %.o.X.X.X./ X.X.X.o.i.e aXmXmXmXmXmXmXmXmXmXlXlX",
"mXmXmXmXmXmXmXmX. / *./ / X./ X.X.X.X.X.X.X.X.X.X./ c.v.X.! K S S S S S U N U ( %./ &.*.*.*.*.*.*.N %.0 zXmXmXmXmXmXmXmXmXmXmXmX",
"mXmXmXmXmXmXlXmXmXX.I +.X.X.X./ X.X.X.X.X.X.X.X.X.X.U U / 4X[.X.X.X.X.G D G o.4.! w.X.G X.X.X.X.S &.G O   mXlXmXmXmXmXmXmXmXmXmX",
"mXmXmXmXlXlXmXmXmXlX. I / X.X.G X.X.X.G X.X.X./ X.X.X.X.X.n n X.X.X.X.D U %.3.}. X~.7XS X.X.U D S h.,.,.,.h iXmXmXlXmXmXmXmXmXmX",
"lXlXmXmXmXmXmXmXmXmXmXg @.@.( k.o.@./ v.( ( G I.X.X.X.X.X./ ( / X.X.N U $.3.[.W.[.(.[.1 I X.N I c.Q.'.W./. Xs.cXmXmXmXlXmXmXmXlX",
"lXmXmXmXmXmXmXmXlXlXmXmX< * * * 6 ( U - - - - - @.@.@.q q q y y q 6 0 q y <.{.v.G ].'.|.K n I u.9.{.H.mX<X[.{.0XlXlXmXmXlXmXmXlX",
"mXlXlXmXmXlXmXlXlXmXmX<.<.K.lXmXmXlX3.K.A.lXS.S.y.mXmXjXlXhXA.d.S.S.d.-X-X3X~.S.4.E {.|.J Y T mXd /.H.mXmX^.{.9XlXmXmXlXlXlXlXmX",
"mXlXmXlXlXmXmXlXjXmX0.^./.}.U.mXmXlX<./.L.Z.Z.Z.Z.q.lXjXlXlXZ.M.[.{.L.lXlXmX[.[.].L.[.|.Z.q.lXmX5 /.`.P.P.{.[.6XlXmXlXlXlXlXlXmX",
"lXlXmXlXlXmXmXmXmXjX0.s.8X9X1XmXlXlX2.[.H.Z.Z.m.Z.q.lXjXlXlXZ.m./.{.L.lXlXmXmX[.P.2.[.|.Z.q.mXmXlX  [.^.8.!.[.,XmXlXlXlXlXlXmXmX",
"lXlXmXmXmXmXmXlXlXjX0.`.J.z z l V.V.<./.H.Z.B.Y.j j Y.N.N.N.Z.m./.[.L.mXmXmXmXs.<.].H.~.B.q.z lXlXjX  2.).F.H.E.lXlXlXlXlXmXmXlX",
"lXmXmXmXlXmXmXlXmXlXfXW.{.].'.[.{.[.[./.(.^.].^.,X,X}.'.).).Q.W.^.(.W.8.8.8.8.n.Q.H.J.r 0.q.1.7.s.7.7.].H.L.W.1XmXlXlXlXlXmXmXlX",
"mXmXmXmXlXmXlXlXmXlXlXc U.U.H.H.H.H.H.H.H.H.L.H.H.H.L.L.H.H.H.H.F.L.L.H.H.L.L.H.K.L.  mXmXB.A.~.^.^.].L.H.1 u lXmXlXlXmXmXmXmXmX",
"mXmXmXmXmXlXlXlXmXmXmXmXmXmXmXmXmXmXmXmXmXlXlXjXmXmXmXmXmXmXmXmXmXmXkXiXiXqXqX:XwXwXmXmXmX    . O O O X O yXlXlXmXmXmXmXmXmXmXmX",
"mXmXmXmXlXlXlXmXmXmXmXlXlXmXmXmXmXmXmXmXjXjXjXmXmXmXmXlXlXmXmXmXmXmXmXmXlXlXlXmXmXmXmXlXlXmXmXmXmXmXmXmXlXlXlXmXmXmXmXlXlXmXmXmX",
"mXlXmXmXlXmXmXmXmXmXlXmXmXmXmXmXmXlXmXmXjXmXmXmXmXmXlXmXmXmXmXmXmXlXmXmXlXmXmXmXmXmXlXmXmXmXmXmXmXlXmXmXlXmXmXmXmXmXlXmXmXmXmXmX",
"lXmXmXmXmXmXmXmXmXlXlXmXmXmXmXlXlXmXmXmXmXmXmXmXmXjXjXmXmXmXmXjXlXmXmXmXmXmXmXmXmXlXlXmXmXmXmXlXjXmXmXmXmXmXmXmXmXlXlXmXmXmXmXlX",
"mXmXmXmXmXmXmXmXmXmXmXmXmXmXlXlXmXmXmXmXmXmXmXmXmXmXmXmXmXmXjXjXmXmXmXmXmXmXmXmXmXmXmXmXmXmXlXlXmXmXmXmXmXmXmXmXmXmXmXmXmXmXlXlX",
"mXmXmXmXmXmXmXmXmXmXmXmXmXmXmXmXmXmXmXmXmXmXmXmXmXmXmXmXmXmXmXmXmXmXmXmXmXmXmXmXmXmXmXmXmXmXmXmXmXmXmXmXmXmXmXmXmXmXmXmXmXmXmXmX",
"mXmXmXmXmXmXlXmXmXmXmXmXmXmXmXmXmXmXmXmXmXmXjXmXmXmXmXmXmXmXmXmXmXmXmXmXmXmXlXmXmXmXmXmXmXmXmXmXmXmXmXmXmXmXlXmXmXmXmXmXmXmXmXmX"
};
