/* XPM */
static char *_658354a88a742b0be14f70fd81b38a6JPyOEWJtiC7ExXvT[] = {
/* columns rows colors chars-per-pixel */
"64 64 25 1 ",
"  c gray9",
". c #7F3F15",
"X c #5A5A5A",
"o c #821108",
"O c #B5000B",
"+ c #B6000C",
"@ c #D11823",
"# c #EB1E37",
"$ c #EC1E37",
"% c #814016",
"& c #D3843B",
"* c #D3853C",
"= c #D5863C",
"- c #FDC757",
"; c #FFC958",
": c #828289",
"> c #AAABB2",
", c #D2D2D2",
"< c gray83",
"1 c #CFEBEA",
"2 c #D0ECEB",
"3 c #EAFDFB",
"4 c #EBFEFC",
"5 c #ECFFFD",
"6 c white",
/* pixels */
"5555225552555555555522555255555555552255525555555555225552555555",
"2255555555525552225555555552555222555555555255522255555555525552",
"2555555522552552255555552255255225555555225525522555555522552552",
"5225525225522225522552522552222552255252255222255225525225522225",
"52522552252222255252X:522522222552522552252222255252255225222225",
"22522555522222552252X6:5522222552252:5555222:  52252255552222255",
"22555552222225522255X66:222X 552225:6:522::>66 22255555222222552",
"25552552522225522555X66>52X6 552255>6:5::6666 522555255252222552",
"55552522522555555555X666 X66 55555:666:66666 5555555252252255555",
"55555222555555555XXXX666X66X555555:66666666 55555555522255555555",
"55552225555225555X66X666666 255555:666666:    555555222555522555",
"525525555525555552X6666666X55$+++ 666666666666 55255255555255555",
"2555555552255552255X666666 $+$$$$ 6666666666X 522555555552255552",
"55555555555555225555X66666 $$$$$ 666666666X 55225555555555555522",
"555555555555555555555:66666X$$$ 66666666X 5555555555555555555555",
"5555552555555555555555X6666 $$ 6666666  555555555555552555555555",
"555522555255555555552X666666X 6666666 $+525555555555225552555555",
"22555555555255522255:666666666666666666:: 5255522255555555525552",
"255555552255255225555X:6>X:66666X  :666666 525522555555522552552",
"5225525225522225522552:>X6 :66: 66X :666 55222255225525225522225",
"525225522522222552521:6 6: X66 ::66 X6666 2222255252255225222225",
"225225555222225522521X6 6 6X*. 6 66  66:  2222552252255552222255",
"225555522222255222554X6 6X%*--== 66 X6<< 22225522255555222222552",
"255525525222255225551:6> %----;%:6X :<<< 22225522555255252222552",
"5555252252255555555513:6%---*&=%X  :<<< 522555555::5252252255555",
"5555522255555555555541X66 %*--=%<<<<<<  o5555  5:66:522255555555",
"55552225555225555555111 ,,,  .%<<<<<<<<  o52 66 666:222555522555",
"525525555525555552551++X ,,,,,<<<<<<<<<<< o5 6:666>>:55555255555",
"2555555552255552255+O#X6666666<<<<<<<:<< ++ 6666>>666 5552255552",
"555555555555552255+@##XXX66666666<<<<< <X++ 6666666   5555555522",
"5555555555555555++$$#$$X66:666666666<<:  + >66666  5555555555555",
"555555255555555+@$$$###  X66666666666<<X+@ >>66  555552555555555",
"5555225552555++$$$$$$$$$X66X6666666666<X@@ >>> o5555225552555555",
"225555555552+@$$$$$$$$$$X66X666666<666<X@@o>> ++o255555555525552",
"25555555225o$$$$$$$$$oo@X66X666666<<6X< @@@  +++o555555522552552",
"52255252255o$$$$$$o  o@@X6 $X66666<<6 < @@@ o++++o25525225522225",
"525225522522o     <<<o@$  $$X66X66<< @  @@@@ ++++o52255225222225",
"22522555522222::6<<<o@$$$$$$$ 6X66<< @@@@@@@ o++++o2255552222255",
"225555522222::66666<o$$$$$$$$ 6 X6<< @@@@@@@o5o+++o5555222222552",
"25552552522:6666666<o$$$$$$$$$ $ 6< @@@@@@@@+ 5o++o5255252222552",
"5555252252:66666666o$$$$$$$$$$$$$ < @@@@@@@++ 55oo55252252255555",
"555552225:666666666o$$$$$$$$$$$$oo  @@@@@@+@+ 555555522255555555",
"555522255:666666666o+@$$$$$$$$$o66 +@@@@++@++ 555555222555522555",
"52552555X<<66666666o++++@$$$$$@ 66 ++++++@+@+ 555255255555255555",
"25555555 <<<<66666<o++++++++++++  ++++++++++o5522555555552255552",
"55555555 <<<<<<<<<<<++++++++++++++++++++++++ 5225555555555555522",
"555555555X<<<<<<<<<<o++++++++++++++++++++++ %5555555555555555555",
"555555255 <<<<<<<<<<%oo+++++++oo    oo+++  ==%%55555552555555555",
"5555225552 X<<<<<<%%===o++++o 55555522   ====;;%5555225552555555",
"225555555552     %;;;===o   5552225555%====;;;;;%255555555525552",
"2555555522552552%;;;;;;== 5525522555555  ;;;;%%%%555555522552552",
"5225525225522225  %;;;;; 5522225522552522  ;;%255225525225522225",
"525225522522222552 ;;;% 2522222552522552252   255252255225222225",
"225225555222225522    555222225522522555522222552252255552222255",
"2255555222222552225555522222255222555552222225522255555222222552",
"2555255252222552255525525222255225552552522225522555255252222552",
"5555252252255555555525225225555555552522522555555555252252255555",
"5555522255555555555552225555555555555222555555555555522255555555",
"5555222555522555555522255552255555552225555225555555222555522555",
"5255255555255555525525555525555552552555552555555255255555255555",
"2555555552255552255544444114445225555555522555522555555552255552",
"5555555555555522555543333333332255555555555555225555555555555522",
"5555555555555555555543333333335555555555555555555555555555555555",
"5555552555555555555543133333335555555525555555555555552555555555"
};
