/* XPM */
static char *s56MheWRkKq_png[] = {
/* columns rows colors chars-per-pixel */
"64 64 225 2 ",
"   c #030402",
".  c #0A0201",
"X  c #0D0C05",
"o  c #140000",
"O  c #190101",
"+  c #150A06",
"@  c #181506",
"#  c #171713",
"$  c #2C0000",
"%  c #2B0A09",
"&  c #3C080B",
"*  c #251305",
"=  c #231B10",
"-  c #3B1010",
";  c #2A230D",
":  c #302B15",
">  c #440009",
",  c #57000B",
"<  c #451112",
"1  c #62000D",
"2  c #670415",
"3  c #740A12",
"4  c #7F1E11",
"5  c #55301B",
"6  c #7E1324",
"7  c #483E29",
"8  c #79562C",
"9  c #545B56",
"0  c #67594D",
"q  c #61625F",
"w  c #5E6B6B",
"e  c #656F6C",
"r  c #737871",
"t  c #920B0B",
"y  c #890218",
"u  c #930115",
"i  c #9D0016",
"p  c #930D14",
"a  c #93011A",
"s  c #9A001A",
"d  c #A10012",
"f  c #A4001B",
"g  c #AC001C",
"h  c #B40318",
"j  c #BD001D",
"k  c #AC1019",
"l  c #8C2A11",
"z  c #942C15",
"x  c #99301A",
"c  c #A8241A",
"v  c #840C21",
"b  c #970321",
"n  c #831022",
"m  c #AF0024",
"M  c #B30124",
"N  c #BD0022",
"B  c #B80C23",
"V  c #AF162D",
"C  c #BC1332",
"Z  c #9C3323",
"A  c #A02020",
"S  c #B82C2E",
"D  c #A7392A",
"F  c #C3001E",
"G  c #CB001E",
"H  c #C72F1D",
"J  c #FF261C",
"K  c #FD2B1C",
"L  c #C30021",
"P  c #CC0021",
"I  c #C00922",
"U  c #D40025",
"Y  c #D40028",
"T  c #DD0A28",
"R  c #DB1E23",
"E  c #C31333",
"W  c #E40129",
"Q  c #EB002D",
"!  c #F1002F",
"~  c #E60334",
"^  c #EA0031",
"/  c #FB0B3D",
"(  c #F51639",
")  c #CE333E",
"_  c #DB3532",
"`  c #FF2220",
"'  c #F43223",
"]  c #FD3223",
"[  c #FF213D",
"{  c #EC373E",
"}  c #84551D",
"|  c #8C5A25",
" . c #8C5B29",
".. c #945725",
"X. c #815E33",
"o. c #AA422D",
"O. c #B4422B",
"+. c #B54831",
"@. c #986E2E",
"#. c #9B7131",
"$. c #9F7A3C",
"%. c #BB673C",
"&. c #A57934",
"*. c #B87534",
"=. c #BA7B36",
"-. c #CB4734",
";. c #C45839",
":. c #E2403B",
">. c #CD723B",
",. c #AB3B51",
"<. c #FF2141",
"1. c #FF2E45",
"2. c #FF2D49",
"3. c #FF3245",
"4. c #FF3748",
"5. c #FF3C48",
"6. c #86424E",
"7. c #8E7349",
"8. c #977144",
"9. c #A1784E",
"0. c #BC7B43",
"q. c #9F716B",
"w. c #C95648",
"e. c #E04040",
"r. c #F65450",
"t. c #CC6947",
"y. c #D4684D",
"u. c #DD7554",
"i. c #E96356",
"p. c #EF7751",
"a. c #F37C67",
"s. c #AB843A",
"d. c #BE8339",
"f. c #C4843B",
"g. c #9F805B",
"h. c #BE8440",
"j. c #BF9241",
"k. c #A1815B",
"l. c #B49B70",
"z. c #B6AD74",
"x. c #C58C48",
"c. c #C39343",
"v. c #C59646",
"b. c #CC934C",
"n. c #D98F50",
"m. c #D89459",
"M. c #E28449",
"N. c #EE945C",
"B. c #DCB554",
"V. c #DABA56",
"C. c #DCB955",
"Z. c #DEB45B",
"A. c #E4AD59",
"S. c #E2B35B",
"D. c #E2BB5B",
"F. c #F78F6D",
"G. c #DBB662",
"H. c #C9B174",
"J. c #E8AF69",
"K. c #E3C55E",
"L. c #DBC066",
"P. c #D9C376",
"I. c #E5C564",
"U. c #EAC664",
"Y. c #ECCB66",
"T. c #E7C968",
"R. c #F4C96B",
"E. c #EEDC6E",
"W. c #F6D967",
"Q. c #F4D56C",
"!. c #F9D56E",
"~. c #F4DA6E",
"^. c #F9D96E",
"/. c #E6CC74",
"(. c #F6CA77",
"). c #EFDC77",
"_. c #F6D572",
"`. c #FAD572",
"'. c #F5DA71",
"]. c #F9DA72",
"[. c #F8D779",
"{. c #FBDB7A",
"}. c #F7E06F",
"|. c #F5E570",
" X c #FAE475",
".X c #FCE179",
"XX c #8C9F9B",
"oX c #BD8798",
"OX c #B0B2A4",
"+X c #A0B5B4",
"@X c #F69086",
"#X c #D0AA81",
"$X c #EBAEB8",
"%X c #CFD687",
"&X c #ECDA88",
"*X c #FED283",
"=X c #FBD786",
"-X c #EAD193",
";X c #FFEE84",
":X c #FBE78A",
">X c #FFF184",
",X c #FEF28C",
"<X c #FAED95",
"1X c #D5CAAC",
"2X c #F4DEB7",
"3X c #F5E8AB",
"4X c #F2F3B5",
"5X c #BACBC9",
"6X c #BED8E1",
"7X c #C0D0CE",
"8X c #D1D2C3",
"9X c #C5D5D3",
"0X c #CADAD7",
"qX c #C4DEDD",
"wX c #CCDCDB",
"eX c #C9E4DE",
"rX c #DBE0D1",
"tX c #F3F9DD",
"yX c #CFEAE9",
"uX c #DAEBE5",
"iX c #D0ECEB",
"pX c #DFF1EF",
"aX c #E1E9E7",
"sX c #ECF9F6",
"dX c #ECFFFD",
/* pixels */
"dXdXdXdXiXiXdXdXdXiXdXdXdXdXdXdXdXdXdXdXiXiXdXdXdXiXdXdXdXdXdXdXdXdXdXdXiXiXdXdXdXiXdXdXdXdXdXdXdXdXdXdXiXiXdXdXdXiXdXdXdXdXdXdX",
"iXiXdXdXdXdXdXdXdXdXdXiXdXdXdXiXiXiXdXdXdXdXdXdXdXdXdXiXdXdXdXiXiXiXdXdXdXdXdXdXdXdXdXiXdXdXdXiXiXiXdXdXdXdXdXdXdXdXdXiXdXdXdXiX",
"iXdXdXdXdXdXdXdXiXiXdXdXiXdXdXiXiXdXdXdXdXdXdXdXiXiXdXdXiXdXdXiXiXdXdXdXdXdXdXdXiXiXdXdXiXdXdXiXiXdXdXdXdXdXdXdXiXiXdXdXiXdXdXiX",
"dXiXiXdXdXiXdXiXiXdXdXiXiXiXiXdXdXiXiXdXdXiXdXiXiXdXdXiXiXiXiXdXdXiXiXdXdXiXdXiXiXdXdXiXiXiXiXdXdXiXiXdXdXiXdXiXiXdXdXiXiXiXiXdX",
"dXiXdXiXiXdXdXiXiXdXiXiXiXiXiXdXdXiXdXiXiXdXdXiXiXdXiXiXiXiXiXdXdXiXdXiXiXdXdXiXiXdXiXiXiXiXiXdXdXiXdXiXiXdXdXiXiXdXiXiXiXiXiXdX",
"iXiXdXiXiXdXdXdXdXiXiXiXiXiXdXdXiXiXdXiXiXdXdXdXdXiXiXiXiXiXdXdXiXiXdXiXiXdXdXdXdXiXiXiXiXiXdXdXiXiXdXiXiXdXdXdXdXiXiXiXiXiXdXdX",
"iXiXdXdXdXdXdXiXiXiXiXiXiXdXdXiXiXiXdXdXdXdXdXiXiXiXiXiXiXdXdXiXiXiXdXdXdXdXdXiXiXiXiXiXiXdXdXiXiXiXdXdXdXdXdXiXiXiXiXiXiXdXdXiX",
"iXdXdXdXiXdXdXiXdXiXiXiXiXdXdXiXiXdXdXdXiXdXdXiXdXiXiXiXiXdXdXiXiXdXdXdXiXdXdXiXdXiXiXiXiXdXdXiXiXdXdXdXiXdXdXiXdXiXiXiXiXdXdXiX",
"dXdXdXdXiXdXiXiXdXiXiXdXdXdXdXdXdXdXdXdXiXdXiXiXdXiXiXdXdXdXdXdXdXdXdXdXiXdXiXiXdXiXiXdXdXdXdXdXdXdXdXdXiXdXiXiXdXiXiXdXdXdXdXdX",
"dXdXdXdXdXiXiXiXdXdXdXdXdXdXdXdXdXdXdXdXdXiXiXiXdXdXdXdXdXdXdXdXdXdXdXdXdXiXiXiXdXdXdXdXdXdXdXdXdXdXdXdXdXiXiXiXdXdXdXdXdXdXdXdX",
"dXdXdXdXiXiXiXdXdXdXdXiXiXdXdXdXdXdXdXdXiXiXiXdXdXdXdXiXiXdXdXdXdXdXdXdXiXiXiXdXdXdXdXiXiXdXdXdXdXdXdXdXiXiXiXdXdXdXdXiXiXdXdXdX",
"dXiXdXdXiXdXdXdXdXdXiXdXdXdXdXdXdXiXdXdXiXdXdXdX<XdXiXdXdXdXdXdXdXiXdXdXiXdXdXdXdXdXiXdXdXdXdXdXdXiXdXdXiXdXdXdXdXdXiXdXdXdXdXdX",
"iXdXdXdXdXdXdXdXdXiXiXdXdXdXdXiXiXdXdXdXdXdXdX4X4XiXiXdXdXdXdXiXiXdXdXdXdXdXdXdXdXiXiXdXdXdXdXiXiXdXdXdXdXdXdXdXdXiXiXdXdXdXdXiX",
"dXdXdXdXdXdXdXdXdXdXdXdXdXdXiXiXdXdXdXdXdXdXdXdXdXdXdXdXdXdXiXiXdXdXdXdXdXdXdXdXdXdXdXdXdXdXiXiXdXdXdXdXdXdXdXdXdXdXdXdXdXdXiXiX",
"dXdXdXdXdXdXdXdXdXdXdXdXdXdXdXdXdXdXdXdXdXdXdXdXdXdXdXdXdXdXdXdXdXdXdXdXdXdXdXdXdXdXdXdXdXdXdXdXdXdXdXdXdXdXdXdXdXdXdXdXdXdXdXdX",
"dXdXdXdXdXdXiXdXdXdXdXdXdXdXdXdXdXdX:XdXdXdXiXdXdXdXdXdXdXdXdXdXdXdXdXdXdXdXiXdXdXdXdXdXdXdXdXdXdXdXdXdXdXdXiXdXdXdXdXdXdXdXdXdX",
"dXdXdXdXiXiXdXdXdXiXdXdXdXdXdXdXdXdX4XtXiXiXdXdXdXiXdXdXdXdXdXdXdXdXdXdXiXiXdXdXdXiXdXdXdXdXdXdXdXdXdXdXiXiXdXdXdXiXdXdXdXdXdXdX",
"iXiXdXdXdXdXdXdXdXdXdXiXdXdXdXiXiXiXdXdXdXdXdXdXdXdXdXiXdXdXdXiXiXiXdXdXdXdXdXdXdXdXdXiXdXdXdXiXiXiXdXdXdXdXdXdXdXdXdXiXdXdXdXiX",
"iXdXdXdXdXdXdXdXiXiXdXdXiXdXdXiXiXdXdXdXdXdXdXdXiXiXdXdXiXdXdXiXiXdXdXdXdXdXdXdXiXiXdXdXiXdXdXiXiXdXdXdXdXdXdXdXiXiXdXdXiXdXdXiX",
"dXiXiXdXdXiXdXiXiXdXdXiXiXiXiXdXdXiXyXdXdXiXdXiXiXdXdXiXiXiXiXdXdXiXiXdXdXiXdXiXiXdXdXiXiXiXiXdXdXiXiXdXsXiXdXiXiXdXdXiXiXiXiXdX",
"dXiXdXiXiXdXdXiXiXdXiXiXiXiXiXdXdXiXdXiXiXdXdXiXiXdXiXyXyXyXyXdXdXyXdXyXyXdXdXiXiXdXiXiXiXiXiXdXdXiXdXiXuXdXdXiXiXdXiXiXiXiXiXdX",
"iXiXdXiXiXdXdXdXdXiXiXiXiXiXdXdXiXiXdXiXiXdXdXdXdXiXiXyXyXyXdXdXyXyXdXyXyXdXdXdXdXiXiXiXiXiXdXdXiXiXdXiXiXdXdXdXdXiXiXiXiXiXdXdX",
"iXiXdXdXdXdXdXiXiXiXiXiXiXdXdXiXiXiXdXdXdXdXdXiXiXiXiXyXyXdXdXyXyXyXdXdXdXdXdXiXiXiXiXiXiXdXdXiXiXiXdXdXdXdXdXiXiXiXiXiXiXdXdXiX",
"iXdXdXdXiXdXdXiXdXiXiXiXiXdXdXiXiXdXdXdXiXdXdXiXdXiXiXyXyXdXdXyXyXdXdXdXyXdXdXiXdXiXiXiXiXdXdXiXiXdXdXdXiXdXdXiXdXiXiXiXiXdXdXiX",
"dXdXdXdXiXdXiXiXdXiXiXdXdXdXdXdXdXdXdXdXiXdXiXiXdXiXiXdXdXdXdXdXdXdXdXdXyXdXiXiXdXiXiXdXdXdXdXdXdXdXdXdXiXdXiXiXdXiXiXdXdXdXdXdX",
"dXdXdXdXdXiXiXiXdXdXdXdXdXdXdXdXdXdXdXdXdXiXiXiXdXdXdXdXdXdXdXdXdXdXdXdXdXyXyXyXdXdXdXdXdXdXdXdXdXdXdXdXdXiXiXiXdXdXdXdXdXdXdXdX",
"dXdXdXdXiXiXiXdXdXdXdXiXiXdXdXdXdXdXdXdXiXiXiXdXdXdXdXyXyXdXdXdXdXdXdXdXyXyXyXdXdXdXdXiXiXdXdXdXdXdXdXdXiXiXiXdXdXdXdXiXiXdXdXdX",
"dXiXdXdXiXdXdXdXdXdXiXdXdXdXdXdXdXiXdXdXiXdXdXdXdXdXiXdXdXdXdXdXdXyXdXdXyXdXdXdXdXdXiXdXdXdXdXdXdXiXdXdXiXdXdXdXdXdXiXdXdXdXdXdX",
"iXdXdXdXdXdXdXdXdXiXiXdXdXdXdXiXiXdXdXdXdXdXdXdXdXiXiXdXdXdXdXyXyXdXdXdXdXdXdXdXdXiXiXdXdXdXdXiXiXdXdXdXdXdXdXdXdXiXiXdXdXdXdXiX",
"dXdXdXdXdXdXdXdXdXdXdXdXdXdXiXiXdXdXdXdXdXdXdXdXdXdXdXdXdXdXyXyXdXdXdXdXpX1X).<XtXdXdXdXdXdXiXwXdXdXdXdXdXuXdXdXdXdXdXdXdXdXiXiX",
"dXdXdXdXdXC.# # X %X%XdXdXdXdXeXdXdXdXdXdXdXdXdXdXdXdXdXdXdXdXdXdXdXdXdXE.'.~.~.>Xp.5.4.5.[ 4.I 3 dX1X. < rXdXdXdXdXdXdXdXdXdXdX",
"dXdXdXdX9X=XC.B.B.C.C.C.B.C.L.G.T.{.(.=XdXdXiXdXdXdXdXdXdXdXdXdXdXdXdXdXY.E.J.~.'.>X{ 1.3.3.3.3.1._ { ~.z.8XiXdXdXdXdXdXdXdXdXdX",
"dXdXdX0X/.{.a a a a a a b b a s O.B.B.W.).,XdXdXdXiXdXdXdXdXdXdXdXdXdXdXY.;.g ;.'. X>Xp./ <.<.2.2.1.1.B.z.OXdXdXdXiXdXdXdXdXdXdX",
"iXiXdX0X/.i j .Xu.L ].:XN *X>Xj f a u A.U.~.. 9 dXdXdXiXdXdXdXiXiXiXdXdXY.% F N z ~.>X>XQ Q Q Q Q ^ W C.z.OXdXdXdXdXdXiXdXdXdXiX",
"iXdXdX0X(.(.F A k j D S N w.t.j y. XF f +._.^.@ XXiXdXdXiXdXdXiXiXdXdXdXY.$ F Q g a a a a s s s s ` J K K @XdXdXiXiXdXdXiXdXdXiX",
"dXiXiXdXr ].~.:XY G j j F L L L f y F *Xr.u D.[.: dXdXiXiXiXiXdXdXiXiXdXY.b o H J F L L F R ] ] ] u t t 4 q.dXiXiXdXdXiXiXiXiXdX",
"dXiXdXiXiX= ; X C F F L L L L L F L L >X-.L u B.^..   iXiXiXiXdXdXiXdXyXY.a m O o ' ' ' ' 2 l l d g 3.~ 0 6XdXiXiXdXiXiXiXiXiXdX",
"iXiXdXiXiXdXdXpXC F F h L L L h F L L u N `.,Xp I._.  + iXiXdXdXiXiXdXiXU.a N f W 1 1 , 5 <X;X;Xa.Q L 4.g dXdXdXdXiXiXiXiXiXdXdX",
"iXiXdXdXdXdXdXqXC F L e.L L L a.L L L L L -X(.N y.!.~.;X* dXdXiXiXiXdXdXY.a L s Q Q Q Q p.>X>X>XF.Q F 3.M dXdXiXiXiXiXiXiXdXdXiX",
"iXdXdXdXiXdXdXqXE F L L L L L L L L L L L N j B m.+.I.~.;X= dXiXiXdXdXdXY.a L i Q Q Q Q N.>X>X>XN.^ L 3.M dXdXiXdXiXiXiXiXdXdXiX",
"dXdXdXdXiXdXiXqXE F L L L L L L L L L L L L L S E.j y V.~.'.# * dXdXdXM.K.a L i ( Q Q T *X;X;X;X:XT F 3.& dXiXiXdXiXiXdXdXdXdXdX",
"dXdXdXdXdXiXiXqXC P j j L L j j L L N N L L L N a L L p V.~.~.~.&XP.H.^.Z L a N ( Q Q Q Q _ _ :.! Q L 3.& iXiXiXdXdXdXdXdXdXdXdX",
"dXdXdXdXiXiXiXdXO Q N ) L L L i.L L j F.L L L L L L E.(.a S.S.S.V.B.C.J.h L u P Q P L L L F L L L P 2.4 5XiXiXdXdXdXdXiXiXdXdXdX",
"dXiXdXdXiXdXdXdX. F ^ F F L F L L L L L L L L L L F u.i.L D c f f f f f N i N G Q F ~ ^ Q ^ ^ ^ ^ i Q 2 qXdXdXdXdXdXiXdXdXdXdXdX",
"iXdXdXdXdXdXdXdXdXL M U L L L F L L L L L L L L L L N N F >X'.L L L L N g j L O.D -.L j L L L L f ~ N +   dXdXdXdXiXiXdXdXdXdXiX",
"dXdXdXdXdXdXdXdXdXdX. M F L L j L L L j L L L F L L L L L a u L L L L g N Q ..{..XQ.<Xf L L N g g w.} } } 0 9XdXdXdXdXdXdXdXiXiX",
"dXdXdXdXdXdXdXdXdXdXdX6.Y Y G r.P U F i.G G j F.L L L L L F G F L L i N W ..^.Y.'.^.'.: M L i M y.R._.I.'. X7.aXdXdXdXdXdXdXdXdX",
"dXdXdXdXdXdXiXdXdXdXdXdX- $ $ $ , G N & > > > > Y U U y v v v n v , 2 3 6 | ^.u.j `._.}.c u M ,.%.].Z.dX*X'.].2XdXdXdXdXdXdXdXdX",
"dXdXdXdXiXiXdXdXdXiXdX| | A.dXdXdXdX..A.x.iXb.b.>.iXdXdXdXsXx.0.m.m.0.$XoX:XQ.n.o.x ].|.z B V dX8 ~.Z.dXiX!.].3XdXiXdXdXdXdXdXdX",
"iXiXdXdXdXdXdXdXdXdX&.].~.{.G.iXyXyX| ~.S.c.c.c.c.=.dXiXdXdXc.f.].].S.dXdXdX'.'.].S.'.|.v.=.dXiX7 ~.E.D.D.].].<XdXdXdXiXdXdXdXiX",
"iXdXdXdXdXdXdXdXiXiX&.7.1X3X-XiXyXdX .'.Z.c.c.d.c.*.dXdXiXdXc.d.~.].S.dXdXdXdX'.D. .'.|.c.=.dXiXiX  '.!.$.~.'.&XiXiXdXdXiXdXdXiX",
"dXiXiXdXdXiXdXiXiXdX&.[.Z.w w r l.l.| ~.Z.c.j.H.9 q #Xg.g.k.c.d.~.'.S.dXdXiXdX9.| `.Z.Q.j.*.e dXdXyX   .(.B.B.P.iXdXdXiXiXiXiXdX",
"dXiXdXiXiXdXdXiXiXdXeXT.].]._.'.{.'.'.~.^.!.`.!.&X&X[.(.(.(.R.Y.~.^.T.@.#.#.#.s.R.Z.Z.5 &.=.X.8.9.8.8.].Z.S.I.-XiXdXiXiXiXiXiXdX",
"iXiXdXiXiXdXdXdXdXiXiXe G.G.Z.Z.Z.Z.Z.Z.Z.Z.S.Z.Z.Z.S.S.Z.Z.Z.Z.B.S.S.Z.Z.S.S.Z.A.S.  yXiXh.b.Q.!.!.].S.Z.; 7 dXdXiXiXiXiXiXdXdX",
"iXiXdXdXdXdXdXiXiXiXiXiXiXdXdXiXiXiXdXdXdXdXdXyXyXyXyXyXyXdXdXyXyXyXwX9X7X5X5X+X+X+XiXiXiX  . X X @ @ X + rXdXiXiXiXiXiXiXdXdXiX",
"iXdXdXdXiXdXdXiXdXiXiXiXiXdXdXiXiXdXdXdXiXdXdXiXdXiXiXiXiXdXdXiXiXdXdXdXiXdXdXiXdXiXiXiXiXdXdXiXiXdXdXdXiXdXdXiXdXiXiXiXiXdXdXiX",
"dXdXdXdXiXdXiXiXdXiXiXdXdXdXdXdXdXdXdXdXiXdXiXiXdXiXiXdXdXdXdXdXdXdXdXdXiXdXiXiXdXiXiXdXdXdXdXdXdXdXdXdXiXdXiXiXdXiXiXdXdXdXdXdX",
"dXdXdXdXdXiXiXiXdXdXdXdXdXdXdXdXdXdXdXdXdXiXiXiXdXdXdXdXdXdXdXdXdXdXdXdXdXiXiXiXdXdXdXdXdXdXdXdXdXdXdXdXdXiXiXiXdXdXdXdXdXdXdXdX",
"dXdXdXdXiXiXiXdXdXdXdXiXiXdXdXdXdXdXdXdXyXyXiXdXdXdXdXiXiXdXdXdXdXdXdXdXiXiXiXdXdXdXdXiXiXdXdXdXdXdXdXdXiXiXiXdXdXdXdXiXiXdXdXdX",
"dXiXdXdXiXdXdXdXdXdXiXdXdXdXdXdXdXiXdXdXyXdXdXdXdXdXiXdXdXdXdXdXdXiXdXdXiXdXdXdXdXdXiXdXdXdXdXdXdXiXdXdXiXdXdXdXdXdXiXdXdXdXdXdX",
"iXdXdXdXdXdXdXdXdXiXiXdXdXdXdXiXiXdXdXdXdXdXdXdXdXyXyXdXdXdXdXyXiXdXdXdXdXdXdXdXdXiXiXdXdXdXdXiXiXdXdXdXdXdXdXdXdXiXiXdXdXdXdXiX",
"dXdXdXdXdXdXdXdXdXdXdXdXdXdXiXiXdXdXdXdXdXdXdXdXdXdXdXdXdXdXyXyXdXdXdXdXdXdXdXdXdXdXdXdXdXdXiXiXdXdXdXdXdXdXdXdXdXdXdXdXdXdXiXiX",
"dXdXdXdXdXdXdXdXdXdXdXdXdXdXdXdXdXdXdXdXdXdXdXdXdXdXdXdXdXdXdXdXdXdXdXdXdXdXdXdXdXdXdXdXdXdXdXdXdXdXdXdXdXdXdXdXdXdXdXdXdXdXdXdX",
"dXdXdXdXdXdXiXdXdXdXdXdXdXdXdXdXdXdXdXdXdXdXyXdXdXdXdXdXdXdXdXdXdXdXdXdXdXdXiXdXdXdXdXdXdXdXdXdXdXdXdXdXdXdXiXdXdXdXdXdXdXdXdXdX"
};
