/* XPM */
static char *_0f0b53c849b4756cc3ebb2b99ac9742x5wqEHTCr66lskYn[] = {
/* columns rows colors chars-per-pixel */
"64 64 25 1 ",
"  c gray6",
". c #101010",
"X c #6B3131",
"o c #4A3173",
"O c #42426B",
"+ c #C52921",
"@ c #E67B4A",
"# c #DE943A",
"$ c #FFD65A",
"% c #7230A3",
"& c #7331A5",
"* c #42528C",
"= c #527BB5",
"- c #72B3D4",
"; c #73B5D6",
": c #8B8BAC",
"> c #8C8CAD",
", c #C3CCDC",
"< c #C5CEDE",
"1 c #CFEBEA",
"2 c #D0ECEB",
"3 c #EAFDFB",
"4 c #EBFEFC",
"5 c #ECFFFD",
"6 c white",
/* pixels */
"5555225552555555555522555255555555552255525555555555225552555555",
"2255555555525552225555555552555222555555555255522255555555525552",
"2555555522552552255555552255255225555555225525522555555522552552",
"5225525225522225522552522552222552255252255222255225525225522225",
"5252255225222225525225522522==2552522552252222255252255225222225",
"225225555222225522522555522=;;=522522555522222552252255552222255",
"22555552222225522255555222O;;;==22555552222225522255555222222552",
"25552552522225522555255252O=;=;=>>>>255252OOO5522555255252222552",
"5555252252255555555525225OOO=;;;>666>>22OO;=O5555555252252255555",
"55555222555555555555>>22O6OO==;O666666OO====O5555555522255555555",
"5555222555522555555><<>>>6OO==O666666666O==;O5555555222555522555",
"5255255555255555525O<<<<666>OO66666666666O;;O5555255255555255555",
"2555555552255552255O<<<666666666666&o6666O;O55522555555552255552",
"5555555555555522555O<<<66666666666&&&o6666O555225555555555555522",
"5555555555555555555O=<66666666666>&&&&>666O555555555555555555555",
"55555525555555555555O<6666>oo>666&&&&&o66<<O55555555552555555555",
"55552255525555555555O<666O&&&oo666&&&&o66<<O55555555225552555555",
"22555555555255522255O<666O&&&&&o66&&&&>6oo<.55522255555555525552",
"25555555225525522555O<666&oo&&&&>66&&o6>&&>.25522555555522552552",
"52255252255222255225O=666&&;=o&&o66>&66o&#>.22255225525225522225",
"525225522522222552521O<66&&;o;#oo66666<=;$>.22255252255225222225",
"225225555222225522521O=,66&;o-$#&66666<o;$>>22552252255552222255",
"2255555222222552225543O=,6&&;-$&>66666<o;&.225522255555222222552",
"2555255252222552255513O=,,,6&%&>6666666>&<.225522555255252222552",
"55552522522555555555131O=,,,,,66666666<<<.2555555555252252255555",
"555552225555555555554111O,,:,,<o<<66<<<<<O5555555555522255555555",
"555522255552255555551113O,,o.,ooo<<<<<o<O55225555555222555522555",
"525525555525555552551333O6,.oooooo<<..>.552555555255255555255555",
"255555555225555225554333O6,.. .oooo.<<O55>>>55522555555552255552",
"55555555555555225555433O66.33.==o..5.<O5O6>6>5225555555555555522",
"55555555555555555555555O66.5.<==.555.<<O>>66>5555555555555555555",
"5555552555555555555555O666.5.<<O5555.<<O66666>555555552555555555",
"555522555255555555552O666.55.<<.5555.<<<O>>66>555555225552555555",
"2255555555525>>222OO>6666.5.666.22XX.><><>6666O22255555555525552",
"255555552255>66OO>6666666XX.666.2X+++><><<>66<O22555555522552552",
"52255252255>6>6.66666666>XX66666X++++.<><<<<<<O55225525225522225",
"5252255225>666.666666666.X.X6666.++++.><<=<<<<O55252255225222225",
"2252255552>6><6.6;;66666.X.+XXX@X++++.><<==<<<O52252255552222255",
"2255555222>66..66;;;6666..+@@@@@+X++++.<<===<<<=2255555222222552",
"2555255252O<.6666;;;666;..+@@@@@+X++++.<<<==<<<=2555255252222552",
"5555252252O666;;66;;6;;;.+++@@@@++O+++.==<<<<O<=5555252252255555",
"5555522255O66;;=;666;;;;.++++@@+++O.++X.=<<<=O=O5555522255555555",
"5555222555O6;;;=;6=6;;;;.<X+++++XX6..X2.==<===OO5555222555522555",
"52552555552O;;;=;;*;;;;.<66XXXXX6666O55.===*==OO5255255555255555",
"25555555522O;;;=;;=;;;;.6666666666666O5.===O===O2555555552255552",
"55555555555O;;;=;;;=;;O.6666666666666O55.===O=O25555555555555522",
"555555555555O;*=;;;*;;..66666666666666O5.===O=O55555555555555555",
"555555255555O;O;;;;*;.2.<6666666666<6<<..===OO555555552555555555",
"5555225552555OO;;;;..255.666666666<6<6<.5.==.5555555225552555555",
"22555555555255O....55555.666>6666<6<<<<<.5..55522255555555525552",
"255555552255255225555555.<<6>66<<><<<<<<.25525522555555522552552",
"5225525225522225522552522.<<><<<<><<<<<<<.5222255225525225522225",
"5252255225222225525225522O<<<O<<<<><<<<<<.2222255252255225222225",
"22522555522222552252255552.<<><<<<>><<<<<.2222552252255552222255",
"22555552222225522255555222.<<<O<<<<O<<<<.22225522255555222222552",
"255525525222255225552552522.<<><<<<<O>..522225522555255252222552",
"5555252252255555555525225225.><><<<...22522555555555252252255555",
"555552225555555555555222555555.....55222555555555555522255555555",
"5555222555522555555522255552255555552225555225555555222555522555",
"5255255555255555525525555525555552552555552555555255255555255555",
"2555555552255552255544444114445225555555522555522555555552255552",
"5555555555555522555543333333332255555555555555225555555555555522",
"5555555555555555555543333333335555555555555555555555555555555555",
"5555552555555555555543133333335555555525555555555555552555555555"
};
