/* XPM */
static char *ed1141900c6243a0c31fec434364452fM3wHq6u2FHtZ7j5p[] = {
/* columns rows colors chars-per-pixel */
"64 64 24 1 ",
"  c gray9",
". c #6F3235",
"X c #4D356F",
"o c #414366",
"O c #424467",
"+ c #D11828",
"@ c #F27451",
"# c #E78F48",
"$ c #FFD16A",
"% c #77349E",
"& c #3E5386",
"* c #3E5487",
"= c #467BAE",
"- c #477CAF",
"; c #62B5D1",
": c #8788A6",
"> c #898AA8",
", c #B2B3CA",
"< c #CFEBEA",
"1 c #D0ECEB",
"2 c #EAFDFB",
"3 c #EBFEFC",
"4 c #ECFFFD",
"5 c white",
/* pixels */
"4444114441444444444411444144444444441144414444444444114441444444",
"1144444444414441114444444441444111444444444144411144444444414441",
"1444444411441441144444441144144114444444114414411444444411441441",
"4114414114411114411441411441111441144141144111144114414114411114",
"41411441141111144141144114111**441411441141111144141144114111114",
"1141144441111144114114444111*;;*11411444411111441141144441111144",
"114444411111144111444441111O;;;; 1444441111114411144444111111441",
"144414414111144114441441411O;;;; 4441441411114411444144141111441",
"44441411411444444444141141 OO;;*; 441411OOO444444444141141144444",
"444441114444444444>>41114O OOOO;; OO41**--O444444444411144444444",
"44441114444114444O55>>14O5 OO-OO; 55 O----O114444444111444411444",
"41441444441444444O5555>>555 O--O 55555 -*;O444444144144444144444",
"14444444411444411O55555555555  O5555555 ;;O444411444444441144441",
"44444444444444114>>5555555555555555555O>-O4444114444444444444411",
"444444444444444444O555555555555555555O%%> 4444444444444444444444",
"444444144444444444O55555555555OOO5555%%%%O4444444444441444444444",
"4444114441444444444 555555555O%%%%>55%%%%>O444444444114441444444",
"1144444444414441114O>55555555%%%%%%>55%%%% 144411144444444414441",
"1444444411441441144O 55555555%%X%%%>>55%%% 414411444444411441441",
"41144141144111144114O 5555555%%-XX%%>555%5 111144114414114411114",
"41411441141111144141O- 555555%% ;$XX>55555 111144141144114111114",
"11411444411111441141< = 55555:%;;$$#>5555>>111441141144441111144",
"114444411111144111443 == 55555%%;$#>55555 1114411144444111111441",
"14441441411114411444<2 =&o55555%%%55555,, 1114411444144141111441",
"44441411411444444444<2< =o555:5555555,,, 11444444444141141144444",
"444441114444444444443<<< o555 >,, ,,,,,O444444444444411144444444",
"44441114444114444444<<<22o555 X,XXX ,, O444114444444111444411444",
"41441444441444444144<2222o555 XXXXXX  5OO41444444144144444144444",
"1444444441144441144432222<o555-XX  4O,,55>>444411444444441144441",
"44444444444444114444322222o555 - 44 555555,>44114444444444444411",
"44444444444444444444444444O555 ,OO4  >,55555>4444444444444444444",
"44444414444444444....41444O555 ,, 4O 55555555O444444441444444444",
"4444114441444444.++@@...41O5555 55 O> >5555555 44444114441444444",
"1144444444414441.++++@@@..55555 555 >>O>5555;;O11144444444414441",
"1444444411441441.++++++@@ 55555 555OO>O55555;;; 1444444411441441",
"41144141144111144.++++++@ 555555 555 > 55555;;;O4114414114411114",
"41411441141111144 +++++++O555555 ..++  5;;;55;;5 141144114111114",
"11411444411111441 ++++++ 5555555 ++++. ;;;;55555 141144441111144",
"114444411111144111 +++++O55555555+++++ ;;;;55555 144444111111441",
"144414414111144114..+++ 555555555 ++++ -;;;;5,55 444144141111441",
"4444141141144444444 +++ 555555555 +++++O--*;5,5 4444141141144444",
"44444111444444444444 + ;;;5555555 ++++.O--*--*, 4444411144444444",
"444411144441144444441 --;;;5555555...55 --*--* 44444111444411444",
"414414444414444441441 ---;;55;;555 5555 -*---* 44144144444144444",
"14444444411444411444 --**-;55;;;55 O555O-*--- 411444444441144441",
"44444444444444114444 **---,555;;555O555, --- 4114444444444444411",
"4444444444444444444 ------,,55555>55O5,,O--* 4444444444444444444",
"4444441444444444444 ----*---,,5555>OO5,,,   44444444441444444444",
"4444114441444444444 --**----,,,,O5O55,,,, 4444444444114441444444",
"1144444444414441114 **------   ,O  5,,,,O44144411144444444414441",
"14444444114414411444 ----   ,,,  ,,,,,,, 14414411444444411441441",
"411441411441111441144    4O,,,,,,,,,>,,, 44111144114414114411114",
"41411441141111144141144114O,,,,>,,,,O,,O141111144141144114111114",
"1141144441111144114114444 ,,,,>,,,,>,,, 411111441141144441111144",
"1144444111111441114444411 ,,,,O,,,,O,,O1111114411144444111111441",
"14441441411114411444144141  ,O,,,,O,,, 1411114411444144141111441",
"4444141141144444444414114114    ,O,,, 11411444444444141141144444",
"44444111444444444444411144444444     111444444444444411144444444",
"4444111444411444444411144441144444441114444114444444111444411444",
"4144144444144444414414444414444441441444441444444144144444144444",
"1444444441144441144433333<<3334114444444411444411444444441144441",
"4444444444444411444432222222221144444444444444114444444444444411",
"4444444444444444444432222222224444444444444444444444444444444444",
"4444441444444444444432<22222224444444414444444444444441444444444"
};
