/* XPM */
static char *_383962e6f944ca6b2591890510dd24f8G14AlYFI03gm5pg[] = {
/* columns rows colors chars-per-pixel */
"64 64 26 1 ",
"  c black",
". c #0F0303",
"X c #0F0A06",
"o c gray6",
"O c #2E080A",
"+ c #2D3030",
"@ c #FE333B",
"# c #FE343C",
"$ c #EA5960",
"% c #CD9631",
"& c #FF8B31",
"* c #FD9031",
"= c #FFBB3D",
"- c #CF8755",
"; c #FF874E",
": c #FEA669",
"> c gray81",
", c #C0D0CE",
"< c #C3DEDD",
"1 c #CEEAE9",
"2 c #D0ECEB",
"3 c #DEF0EE",
"4 c #EAFDFB",
"5 c #EBFEFC",
"6 c #ECFFFD",
"7 c white",
/* pixels */
"6666226662666666666622666266666666662266626666666666226662666666",
"2266666666626662226666666662666222666666666266622266666666626662",
"2666666622662662266666662266266226666666226626622666666622662662",
"6226626226622226622662622662222662266262266222266226626226622226",
"6262266226222226626226622622222662622662262222266262266226222226",
"2262266662222266226226666222226622622666622222662262266662222266",
"2266666222222662226666622222266222666662222226622266666222222662",
"2666266262222662266626626222266226662662622226622666266262222662",
"6666262262266666666626226226666666662622622666666666262262266666",
"6666622266666666666662226666666666666222666666666666622266666666",
"6666222666622666666622266662266666662226666226666666222666622666",
"6266266666266666626626666626666662662666662666666266266666266666",
"2666666662266662266666666226666226666666622666622666666662266662",
"6666666666666622666666666666662266666666666666226666666666666622",
"6666666666666666666666666666666666666666666666666666666666666666",
"6666662666666666666666266666666666666626666666666666662666666666",
"6666226662666666666622666266666666662266626666666666226662666666",
"2266666666626662226666666662666222666666666266622266666666626662",
"26666666226626622666666622662662266     226626622666666622662662",
"6226626226622226622662622          #####  6222266226626226622226",
"626226622622222662622662 ##### :: ##   ### 222266262266226222226",
"226226666222226622622666 #   # :: # @.  ## 222662262266662222266",
"226666622222266222666662 #   ##  ## @.  ## 226622266666222222662",
"266626626222266226662    #    ####  @&* ## 226622666266262222662",
"6666262262266666666  === ##@###  ##    ###   3666666262262266666",
"66666222666666666  7=====     #   ##@###  ==7o 66666622266666666",
"66662226666226666  7=====     #   ##@###  ==7o 66666222666622666",
"62662666662666666  ;77==  #@##   *      ==77:X 66266266666266666",
"26666666622666622  ;;;  $##@  ***=* O#$ ##:::X 22666666662266662",
"66666666666666226  ;;;  #$  ========% # ##:::X 26666666666666622",
"66666666666666666  ;;;  #$  ========% # ##:::X 66666666666666666",
"6666662666666666666  ;  ##  77====77> # ##:  3666666662666666666",
"6666226662666666666 ;   ##  ;;7777::-  #   : 3666666226662666666",
"2266666666626662226 ;;  ##  ;;;77:::::  :::: 3622266666666626662",
"2666666622662662266 ;;  ##   ;;77::   ##:::: 3622666666622662662",
"6226626226622226622 ;;  ##   ;;77::   ##:::: <266226626226622226",
"6262266226222226626 ;;  ##  ;      :::##:::: <266262266226222226",
"2262266662222266226 ;;   #  ;;;77:::::##:::: <662262266662222266",
"2266666222222662226 ;;;;#   ;;;77:::::##:::: 3622266666222222662",
"2666266262222662266 ;;;;#.  ;;;77:::::##:::: 3622666266262222662",
"6666262262266666666 ;;;;##  ;;;77:::::##:::: 3666666262262266666",
"6666622266666666666 ;;;;##;;;;;77:::::##:::: 3666666622266666666",
"66662226666226666666  ;;##;;;;;77:::::##::  26666666222666622666",
"6266266666266666626626   #;;;;;77:::::#   2666666266266666266666",
"2666666662266662266666   #;;;;;77:::::#   2666622666666662266662",
"6666666666666622666666666   ;;;77:::-  6666666226666666666666622",
"6666666666666666666666666666  ;77:  +666666666666666666666666666",
"666666266666666666666626666666    666626666666666666662666666666",
"666622666266666666662266626666,,,,662266626666666666226662666666",
"2266666666626662226666666662666222666666666266622266666666626662",
"2666666622662662266666662266266226666666226626622666666622662662",
"6226626226622226622662622662222662266262266222266226626226622226",
"6262266226222226626226622622222662622662262222266262266226222226",
"2262266662222266226226666222226622622666622222662262266662222266",
"2266666222222662226666622222266222666662222226622266666222222662",
"2666266262222662266626626222266226662662622226622666266262222662",
"6666262262266666666626226226666666662622622666666666262262266666",
"6666622266666666666662226666666666666222666666666666622266666666",
"6666222666622666666622266662266666662226666226666666222666622666",
"6266266666266666626626666626666662662666662666666266266666266666",
"2666666662266662266655555115556226666666622666622666666662266662",
"6666666666666622666654444444442266666666666666226666666666666622",
"6666666666666666666654444444446666666666666666666666666666666666",
"6666662666666666666654144444446666666626666666666666662666666666"
};
