/* XPM */
static char *f77cc5d2e93648b6bb1c502233824015Bv7olsZvNdcmetyz[] = {
/* columns rows colors chars-per-pixel */
"64 64 189 2 ",
"   c #3D3B27",
".  c #3C322D",
"X  c #3B3C2C",
"o  c #302A32",
"O  c #383A31",
"+  c #413E2A",
"@  c #4A3C35",
"#  c #3C443C",
"$  c #45422C",
"%  c #464431",
"&  c #534635",
"*  c #54453B",
"=  c #5D5536",
"-  c #624739",
";  c #64493B",
":  c #625738",
">  c #655A39",
",  c #6C623B",
"<  c #72663D",
"1  c #79673F",
"2  c #413745",
"3  c #433844",
"4  c #473D48",
"5  c #483E49",
"6  c #384445",
"7  c #454C49",
"8  c #4D514E",
"9  c #5B5348",
"0  c #494A5C",
"q  c #564F5C",
"w  c #4D5451",
"e  c #44545E",
"r  c #525857",
"t  c #695245",
"y  c #6C5749",
"u  c #6D584D",
"i  c #745D4E",
"p  c #7D6741",
"a  c #646E5C",
"s  c #776050",
"d  c #756358",
"f  c #7C685A",
"g  c #7C7157",
"h  c #5A5E60",
"j  c #5A6669",
"k  c #636D6B",
"l  c #686E69",
"z  c #6A7574",
"x  c #667478",
"c  c #687579",
"v  c #6C7B7B",
"b  c #707874",
"n  c #757E7D",
"m  c #856D44",
"M  c #886F45",
"N  c #8A7247",
"B  c #8C7649",
"V  c #937B4C",
"C  c #887E5D",
"Z  c #806F61",
"A  c #817063",
"S  c #85776B",
"D  c #827D69",
"F  c #88786B",
"G  c #70807F",
"H  c #5F7784",
"J  c #637A86",
"K  c #51809F",
"L  c #7B8484",
"P  c #738488",
"I  c #798B90",
"U  c #5785A5",
"Y  c #5087AF",
"T  c #5988AD",
"R  c #5488B1",
"E  c #598BB4",
"W  c #5B8EB8",
"Q  c #5F90B7",
"!  c #5D90BB",
"~  c #7995A4",
"^  c #668FB9",
"/  c #698FBA",
"(  c #6292B7",
")  c #6494B9",
"_  c #6D91BC",
"`  c #6D9BBD",
"'  c #7194BE",
"]  c #71A0BE",
"[  c #6E94C1",
"{  c #7296C1",
"}  c #7599C3",
"|  c #7B9DC4",
" . c #729FCF",
".. c #7AA2C3",
"X. c #7DA9C6",
"o. c #76A1D1",
"O. c #7BA3D5",
"+. c #7EA7D9",
"@. c #7FA8DB",
"#. c #838B8B",
"$. c #878E90",
"%. c #8A8E90",
"&. c #8C9394",
"*. c #869699",
"=. c #8B9B9C",
"-. c #949A9A",
";. c #959A9A",
":. c #8B9BA0",
">. c #929FA3",
",. c #8FA3A2",
"<. c #99A6A5",
"1. c #9BA8A7",
"2. c #98A7A8",
"3. c #97ABB0",
"4. c #A3A5A5",
"5. c #A2AFAD",
"6. c #A3B0AE",
"7. c #A8B4B4",
"8. c #ABB9B7",
"9. c #ACBAB8",
"0. c #809FC6",
"q. c #81A1C6",
"w. c #85A6CB",
"e. c #89ACC9",
"r. c #92B1CF",
"t. c #9EBBCA",
"y. c #81A7D7",
"u. c #8DACD2",
"i. c #83AADB",
"p. c #91AFD4",
"a. c #93B1D6",
"s. c #95B4D9",
"d. c #9AB7DA",
"f. c #9CB8DC",
"g. c #A6BDDA",
"h. c #A2BCDC",
"j. c #B6C6C8",
"k. c #A6C3D2",
"l. c #ADC7D5",
"z. c #AFC8D4",
"x. c #ADC2DE",
"c. c #AFCCDA",
"v. c #B5CCD7",
"b. c #B2CCDA",
"n. c #BBD2DC",
"m. c #B8D9DF",
"M. c #ADC4E0",
"N. c #B4C7E1",
"B. c #B3C8E1",
"V. c #B5C9E3",
"C. c #B8CBE2",
"Z. c #B9CDE3",
"A. c #BBD5E1",
"S. c #BBDCE1",
"D. c #C1CBCC",
"F. c #C1D6DD",
"G. c #C3DADE",
"H. c #CAD8DA",
"J. c #C6E0DF",
"K. c #C3D6E1",
"L. c #C6D9E2",
"P. c #C6DDE6",
"I. c #C8DBE3",
"U. c #C9DCE2",
"Y. c #CBDEE4",
"T. c #CEDEE5",
"R. c #D2DFE6",
"E. c #D1DBEA",
"W. c #C7E3E3",
"Q. c #C9E0E8",
"!. c #CFEAEB",
"~. c #D4E2E6",
"^. c #DBE2E7",
"/. c #D7E9E7",
"(. c #D3E6EB",
"). c #D0ECEB",
"_. c #DBEBED",
"`. c #DFF1EF",
"'. c #D4ECF1",
"]. c #DCF2F5",
"[. c #E5E8EA",
"{. c #ECEEEE",
"}. c #E3E6F3",
"|. c #E6E8F4",
" X c #EAEAF7",
".X c #E1F3F1",
"XX c #E5F8F6",
"oX c #ECFFFD",
"OX c gray94",
/* pixels */
"oXoXoXoX).).oXoXoX).oXoXoXoXoXoXoXoXoXoX).).oXoXoX).oXoXoXoXoXoXoXoXoXoX).).oXY Y ).oXoXoXoXoXoXoXoXoXoX).).oXoXoX).oXoXoXoXoXoX",
").).oXoXoXoXoXoXoXoXoX).oXoXoX).).).oXoXoXoXoXoXoXoXoX).oXoXoX).).).oXoXoXoXY Y.Y.Y oX).oXoXoX).).).oXoXoXoXoXoXoXoXoX).oXoXoX).",
").oXoXoXoXoXoXoX).).oXoX).oXoX).).oXoXoXoXoXoXoX).).oXoX).oXoX).).oXoXoXoXoXY  X XY oXoX).oXoX).).oXoXoXoXoXoXoX).).oXoX).oXoX).",
"oX).).oXoX).oX).).oXoX).).).).oXoX).).oXoX).oX).).oXoX).).).).oXoX).).oX_ Y Y. X XY.Y _ _ ).).oXoX).).oXoX).oX).).oXoX).).).).oX",
"oX).oX).).oXoX).).oX).).).).).oXoX).oX).).oXoX).).oX).).).).)._ _ )._ _ V.Y  X X X XY f.f._ )._ _ ).oX).).oXoX).).oX).).).).).oX",
").).oX).).oXoXoXoX).).).).).oXoX).).oX).).oXoXoXoX).).).).)._ _ _ _ V.V._ Y. X X X XY._ _ f._ _ _ _ oX).).oXoXoXoX).).).).).oXoX",
").).oXoXoXoXoX).).).).).).oXoX).).).oXoXoXoXoX).).).).).)._ _ V.V.V.V.V.Y Y. X X X XY.Y Y f.f.f.f._ _ oXoXoXoX).).).).).).oXoX).",
").oXoXoX).oXoX).oX).).).).oXoX).).oXoXoX).oXoX).oX).)._ _ _ _ V.V.V.V.V.Y Y. X X X XY.Y Y f.f.f.f._ _ _ _ oXoX).oX).).).).oXoX).",
"oXoXoXoX).oX).).oX).).oXoXoXoXoXoXoXoXoX..` W.).oX)._ f.f.f._ f.V.V.f.f.Y.Y. X X X XY.Y.Y.f.f.f.f._ @.@.@._ ).).oX).).oXoXoXoXoX",
"oXoXoXoXoX).).).oXoXoXoXoXoXoXoXoXoXoXX.l.b.] W.oXoX_ f.f.f.f._ V.f.V.V.Y.Y.Y. X XY.Y.Y.Y.V.f.f._ @.@.@.@._ ).).oXoXoXoXoXoXoXoX",
"oXoXoXoX).).).oXoXoXoX).).oXoXoXoXoXoX) E.}.( ].oX_ _ f.f.f.f._ V.V.V.V.Y.Y.Y.Y.Y.Y.Y.Y.Y.V.f.f._ @.@.@.@._ _ oXoXoXoX).).oXoXoX",
"oX).oXoX).oXoXoXoXoX).oXoXoXoXoXoXe.` l.}. Xn.../ } s.V.V.f._ Y.Y.V.V.V.V.Y.Y.V.V.Y.Y.V.V.V.f.V.V._ @.f.f.@.@._ oXoX).oXoXoXoXoX",
").oXoXoXoXoXoXoXoX).).oXr.w.].e...h.E E. X X|.( u.a.| x.q._ K.Y.Y.V.V.V.V.V.V.Y.Y.V.V.V.V.V.f.V.V.V._ f.f.@.@._ oX).).oXoXoXoX).",
"oXoXoXoXoXoXoXoXoXoXoXr.' _ ..h.g.0.l.}. X X Xn.| } u.| _ _ | K.V.f.V.V.V.V.Y.Y.Y.Y.V.V.V.f.f.f.V.V._ @.f.f.@._ oXoXoXoXoXoX).).",
"oXoXoXoXoXoXoXoXoXoXr.' h.g.g.N.V.( n.|. X X XT.( R a.a.a.a.' { s.Y.Y.Y.V.V.Y.Y.Y.Y.V.f.f.V.V.f.f._ @.@.@.@._ oXoXoXoXoXoXoXoXoX",
"oXoXoXoXoXoX).oXr.w.' _ x.V.V.V.V.W n.|. X X XT.Q Y a.f.f.f.{ _ { | K.Y.V.V.Y.Y.Y.Y.V.f.f.V.V.f.f._ f.f.@.@.@._ oXoXoXoXoXoXoXoX",
"oXoXoXoX).).oXr.p.a.a.' d.N.V.h.h.b.I.|. X X XT.b.b.f.f.f.f.{ o.O.O...K.V.V.V.Y.Y.V.f.f.f.V.V.V._ @.f.f.f.@.@.@._ ).oXoXoXoXoXoX",
").).oXoXoXoXoX| s.f.f.a.| x.h.M.N.L.Y.R.|. X~.Y.Y.Y.B.f.f.| o.+.@.@._ x.f.V.V.V.V.f.f.f.f.f.V.V._ @.@.f.f.@.@.@._ oXoX).oXoXoX).",
").oXoXoXoXoXr.' s.f.f.f.{ x.N.V.V.I.Y.Y.R.~.Y.Y.Y.Y.V.f.f.{ +.@.@.@._ { x.V.V.V.V.f.f.f.f.f._ _ @.@.@.@.@.@.Y _ _ Y oXoX).oXoX).",
"oX).).oXoXe.p.a.M.N.f.| b.L.V.V.V.Z.I.Y.Z.Z.I.Y.Z.Z.V.f.M.g.} +.a.s.+.O.| x.V._ _ f.f.f.f._ @.@.@.@.@.@.@.@.@.Y Y Y oX).).).).oX",
"oX).oX).).| s.f.N.V.| b.U.Y.V.V.V.V.Z.Z.K.L.Z.C.V.V.V.f.N.V.g.} s.f.i.@._ x._ @.@._ f.f.f._ @.f.f.@.@.@.@.@.@.@.Y oX).).).).).oX",
").).oX).).| s.M.V.h.{ n.Y.Z.h.N.V.V.V.K.U.U.L.V.N.N.h.d.f.N.V.} y.d.s.i._ _ f.@.@.@._ _ _ @.@.f.f.f.@.@.@.@.@.@.Y Y ).).).).oXoX",
").).oXoXoX'.q.d.h.f.a.q.h.h.A.L.L.V.V.I.U.U.U.V.h.f.x.x.f.f.| o.+.i.i.} u.d.f.@.@.@.@.@.@.@.@._ f.f._ f.f.@.Y Y @.@.Y ).).oXoX).",
").oXoXoX).r.p.d.f.M.N.{ s.f.L.Y.Y.V.V.I.U.U.U.V.f.d.N.N.f.d.{ a.s.i.@.+.} s.f.@.@.@.@.@.@.@.@._ f.f._ f.f.@.Y Y @.@._ Y ).oXoX).",
"oXoXoXoXe.p.d.f.M.V.V.a.| n.U.Y.Y.V.V.Z.I.U.Z.h.d.d.N.N.x.| o.s.f.s.i.@.+.} +.@.@.@.@.@.@.@.@.@._ _ @.f.f.f.Y _ _ _ Y oXoXoXoXoX",
"oXoXoXoX| s.f.f.N.V.h.f.{ n.Y.Z.Z.h.N.V.C.C.h.d.d.d.f.N.N.' +.i.d.f.i.@.@._ +.@.@.@.@.@.@.@.@.@.@.@.@.@.f.f.Y @.@.Y oXoXoXoXoXoX",
"oXoXoXr._ { ( a.h.h.f.f.a.q.| d.h.M.V.V.V.N.f.d.d.d.d.| | o.+.@.i.i.@.! [ _ E O.@.@.@.@.@.@.@.@.@.@._ Y Y Y _ @.f.f.Y ).).oXoXoX",
"oX).oX) / E w.d.f.f.f.f.f.a.a.| } x.V.V.q.| a.d.d.d.| o.o.+.@.@.@.@.@.o.E R Y O.@.@.f.f.@.@.@.@.@.@.Y _ _ _ _ _ f.f._ Y oXoXoXoX",
").oXoX) R w.d.f.| s.f.i.d.f.f.{ _ x.V.q.o.o.} a.d.d.' O.a.s.i.@.@.@.@.@.o.R  .+.@.@.f.f.f._ _ _ @.@.Y _ _ _ _ _ _ _ _ Y oXoXoX).",
"oXoXX.o.R a.f.i.+.i.i.s.d.f.i.+.O.| | p.i.+.o.} { { o.+.d.d.s.i.@.@.@.@.@.R R a.f._ f.f.f.Y Y _ Y Y _ _ @.@._ _ _ Y Y oXoXoX).).",
"oXX.o.+.o.( Q [ a.s.} s.f.| +.@.@.p.a.d.i.@.@.+.O.O.+.@.} s.f.} a.s.i.! E  .o.( a._ Y f.f.Y Y _ _ @.@._ @.f.f._ Y oXoXoXoXoXoXoX",
"X._ +.@.} R Y / s.f.{ s.f.{ +.@.@.d.f.f.i.@.@.@.@.@.@.@._ s.f.{ s.f.i.R Y O.@._ W Y _ k.l.l.l.l.l.i.@.@._ f.f._ Y oXoXoXoXoXoXoX",
"'.) _ { _ / R u.d.f.+.} } o.+.@.@.d.f.i.@.@.@.@.@.@.@.@.+.} } o.s.f.s.E ^ [ { E Y k.l.[.[.[.[.[.[.z.i.@._ _ _ _ _ Y oXoXoXoXoXoX",
").S.) o.O._ R a.f.i.@.+.O.+.@.@.@.i.i.@.@.@.@.@.@.@.@.@.@.+.O.+.i.d.f.E o.O.E ^ k.~.[.{.OXOXOXOX_.P.z.' _ _ _ _ _ Y oX).oXoXoX).",
").X.u.s.i._ / Q Q E [ +.@.@.@.@.@.@.@.@.@.@.@.@.@.@.@.@.@.@.@.} W W Q ^ +.a.u.) R.{.{.OXOXOX_._.{.(.P.z.' Y Y Y Y ).oXoX).oXoX).",
"X.) a.f.} _ _ / ^ ^ R O.@.@.@.@.@.a.s.i.@.@.@.a.s.i.@.@.@.@.@.E ^ ^ ^ _ [ s.f._ ` [.OXOXOXOX(.(.{.{.Q.P.z.R oX).).oXoX).).).).oX",
") / { } _ _ _ _ _ _ R O.@.} { { a.d.f.i.@.@.@.d.f.s.} { { +.@.R / _ _ _ _ { } _ R ^.OXOXOXOX_.(.{.OX{.Q.P.0 .X).).oX).).).).).oX",
"S.( R / _ _ o.O._ _ / E E _ E R a.f.f.} a.s.} s.f.f.W R / E E ^ _ o.O._ _ _ E R F.{.OXOXOXOX(.(.{.OXOXQ.Q.d q .XoX).).).).).oXoX",
").S.!.) / u.s.i._ o.O._ ^ _ R Y a.f.) _ s.f.{ ( a.f.E Y / /  .O._ +.a.a.' E t.b.(._.{.OXOXOX(.(.Q.{.OXQ.Q.f i v.S W.).).).oXoX).",
").oXoX) / s.f.} o.+.@._ _ _ / ^ Q Q ^ R a.f.W ^ Q Q ^ ^ _ _ +.@.+.} s.f.{ R A.Q.(.(._.{.OXOXQ.Q.(.Q.Q.Q.Q.f j.~.j.!.).).).oXoX).",
"oXoXX._ _ { } _ +.@.} _ _ _ _ _ / ^ _ / Q Q ^ _ / ^ _ _ _ _ [ +.@._ { } _ / ) A.(.(.(._._._.(.(.Q.(.Q.Q.Q.t F.(.(.n.!.oXoXoXoXoX",
"oXoX) / _ _ _ _ [ { _ _ _ _ _ _ _ _ _ _ / ^ _ _ _ _ _ _ _ _ _ [ { _ _ _ _ _ R A.{.{.{.(.(.(.Q.Q.(.Q.Q.Q.S ; F.Q.(.n.oXoXoXoXoXoX",
"oXoX'.) R R R / _ _ _ _ _ o.O._ _ _ _ _ _ _ _ _ _ _ o.O._ _ _ _ _ _ E R R R k.P.{.OXOX{.(.(.(.(.Q.Q.Q.Q.f ; u F.Q.(.n.!.).oXoXoX",
"oX).oX'.m.!.Q / _ _ _ _ u.s.i._ _ _ _ _ _ _ _ _ _ _ +.a.a.' _ _ _ _ R c.A.U.P.Q.Q.{.OXOXQ.Q.Q.Q.S G.Q.S s i ; F.Q.(.n.oXoXoXoXoX",
").oXoXoXoXoX) / _ _ _ _ s.f.} _ _ _ _ _ _ _ _ _ _ _ [ s.f.{ _ _ _ _ R ^.{.{.{.Q.Q.Q.Q.Q.Q.Q.Q.Q.f Z G.f s s ; f G.Q.n.oXoXoXoX).",
"oXoXoXoXoXoX) / _ E R / { } _ _ _ _ _ _ o.O._ _ _ _ _ { { _ E R / _ R ^.OXOXOX{.Q.Q.Q.Q.Q.Q.Q.Q.f s Z s s s i i Z G.n.oXoXoX).).",
"oXoXoXoXoXj.3.E R Y ^ _ _ _ _ _ _ _ _ u.s.i._ _ _ _ _ _ _ _ / R R R ~ 7.[.OXOXOXF G.Q.Q.Q.Q.Q.Q.f s s s s s s s s Z u q .XoXoXoX",
"oXoXoXoXoX9.,.I P Y / _ _ E R / _ _ _ s.f.} _ _ _ _ E R / _ _ R H J *.4.[.OXOXQ.f G.Q.Q.Q.Q.S A s ; ; i s s ; i s s i 3 -.oXoXoX",
"oXoXoXoX7.,.6.#.L Y / _ _ R ^ _ _ E / { } _ _ E / _ / R / _ _ R c c *.,.2.L.Q.Q.f Z G.Q.S A ; ; ; - D.H.H.H.t ; i s s 3 &.oXoXoX",
").).oXoX9.6.6.#.L P T R R a U / E Y / _ _ _ _ R R / E a U R R J c c =.>.9 f A A s s Z G.t ; - - - D.{.{.{.(.t - ; i s 3 &.oXoX).",
").oXoXoX9.6.6.#.v v j j 6 & K R Y Y R / _ _ E Y Y R Y 9 # 6 e x v v *.9 * i ; ; i s s Z i ; - - D.{.{.OXOX{.t - - ; ; 2 #.oXoX).",
"oX).).oX9.,.6.=.G L j O = m C C C C U R / E Y D C C C B > X 7 z c *.>.* * i ; - i s s s s i ; j.{._.{._.{._.t - - - - 2 #.).).oX",
"oX).oX).J.8.6.,.P L z X > < V V > B C U R Y D V > B V 1 ,   r c c =.:.* y ; - - ; i s s s s i F._.{._.{.Q.d ; - - - 3 L &.).).oX",
").).oX).).9.6.6.#.v v w X   , : m V V g g g V V N > < $   O 8 k . &.9 * ; - - - - i s s s s ; F.d ~.(.Q.d ; - - - - 2 #.&.).oXoX",
").).oXoXoX.X8.,.=.G v z w w + & B N M < < < m M V = + 7 7 z w j o @ & y - - - - - i s s s s ; u ; u G.d ; - - - - - 2 #.G.oXoX).",
").oXoXoX).oX.X2.6.=.G v z n r X p m m $     p m M + 7 k z L w j h o & ; - - - - - i s s s s ; - - - u ; - - - - 3 3 L &.W.oXoX).",
"oXoXoXoX).oX).J.8.,.=.#.L L n X 1 < $ 8 7 w $ , m   k L L L -.l k L 4 3 - - - - - ; ; ; i ; - - - - - - - 3 3 3 #.#.&._.oXoXoXoX",
"oXoXoXoXoX).).)..X8.6.1.#.L L b %   l n n z k % + l L L L <.5.1.H.`.&.%.5 3 3 3 3 - - - ; - - - - - - - 3 L #.#._..X.XoXoXoXoXoX",
"oXoXoXoX).).).oXoX.X8.,.=.1.#.L b z L L v v v b z L L *.=.5.5./.oXoX.X.X$.#.#.%.%.5 3 - - - - - - 3 3 3 L &.&.-.XXoXoX).).oXoXoX",
"oX).oXoX).oXoXoXoXoXJ.`.`.8.1.1.1.G L L v L L L <.1.=.5./.`.`.oXoX).oXoXW..X-.-.-.%.#.5 3 3 3 3 3 L %.%.&.-._..XoXoX).oXoXoXoXoX",
").oXoXoXoXoXoXoXoX).).oXoX.X8.,.,.1.1.1.1.1.1.1.5.,.,./.oXoXoX!.).oXoXoXoXoX.X.X.X=.&.%.%.%.%.#.#.-.-.-._..XoXoXoX).).oXoXoXoX).",
"oXoXoXoXoXoXoXoXoXoXoXoXoXoXJ.G.8.6.6.6.5.5.5.5.5./._.oXoXoX).).oXoXoXoXoXoXoXoXoXoXoXoXoXoX).).oXoXoXoXoXoXoXoXoXoXoXoXoXoX).).",
"oXoXoXoXoXoXoXoXoXoXoXoXoXoXoXoX.X`.`.`.`._._._._.oXoXoXoXoXoXoXoXoXoXoXoXoXoXoXoXoXoXoXoXoXoXoXoXoXoXoXoXoXoXoXoXoXoXoXoXoXoXoX",
"oXoXoXoXoXoX).oXoXoXoXoXoXoXoXoXoXoXoXoXoXoX!.oXoXoXoXoXoXoXoXoXoXoXoXoXoXoX).oXoXoXoXoXoXoXoXoXoXoXoXoXoXoX).oXoXoXoXoXoXoXoXoX"
};
